<svg width="151" height="82" viewBox="0 0 151 82" fill="none" xmlns="http://www.w3.org/2000/svg">
<g opacity="0.99">
<path d="M148.993 -188.287C147.223 -188.727 143.943 -189.23 141.779 -189.418C139.615 -189.544 136.598 -189.544 135.024 -189.418L132.269 -189.23C132.269 -184.579 132.729 -181.499 133.253 -179.362C133.778 -177.162 134.827 -174.271 135.549 -172.888C136.27 -171.505 137.844 -169.305 139.09 -168.048C140.336 -166.665 143.091 -164.843 145.452 -163.837C148.993 -162.266 150.699 -161.951 156.535 -161.763C160.339 -161.637 163.815 -161.7 164.34 -162.014C165.061 -162.391 165.061 -163.397 164.471 -167.231C164.143 -169.808 163.356 -173.328 162.766 -175.088C162.176 -176.785 160.864 -179.362 159.88 -180.745C158.896 -182.127 156.798 -184.202 155.158 -185.333C153.584 -186.527 150.83 -187.847 148.993 -188.287Z" fill="#3BEE4C" fill-opacity="0.6"/>
<path d="M42.4197 -184.202V-186.087C31.4672 -186.024 27.1387 -185.647 25.6959 -185.207C24.253 -184.767 22.1544 -183.95 21.105 -183.447C19.9901 -182.882 18.0882 -181.31 16.7765 -179.99C15.4648 -178.67 13.7596 -176.408 12.9726 -174.962C12.1856 -173.454 11.1363 -170.5 10.6116 -168.362C10.0869 -166.163 9.62786 -163.083 9.62786 -161.449V-158.432C23.9251 -158.809 25.5647 -159.06 28.6471 -160.38C30.6147 -161.26 33.1068 -162.706 34.2218 -163.586C35.2711 -164.466 37.1074 -166.854 38.288 -168.865C39.4685 -170.939 40.8457 -174.711 41.436 -177.413C41.9606 -180.116 42.4197 -183.196 42.4197 -184.202Z" fill="#3BEE4C" fill-opacity="0.6"/>
<path d="M216.872 -170.437C214.38 -171.191 209.724 -171.882 205.658 -172.071C199.23 -172.448 198.64 -172.322 198.181 -171.254C197.853 -170.625 197.853 -167.797 198.05 -165.031C198.312 -162.266 198.968 -158.432 199.558 -156.546C200.149 -154.66 201.329 -151.832 202.116 -150.261C202.969 -148.689 204.936 -146.238 206.51 -144.855C208.019 -143.41 210.576 -141.65 212.085 -140.896C213.659 -140.141 216.61 -139.198 218.643 -138.696C220.742 -138.193 224.349 -137.69 226.71 -137.627C229.071 -137.564 232.154 -137.564 233.596 -137.564L236.22 -137.69C235.433 -145.735 234.842 -149.506 234.449 -151.203C234.121 -152.963 232.941 -156.043 231.891 -158.117C230.842 -160.192 229.333 -162.58 228.546 -163.46C227.694 -164.34 225.726 -166.037 224.087 -167.105C222.447 -168.237 219.234 -169.745 216.872 -170.437Z" fill="#3BEE4C" fill-opacity="0.6"/>
<path d="M79.1466 -157.426C77.1791 -157.866 73.0473 -158.494 69.9649 -158.746C66.8825 -158.997 64.128 -158.934 63.8 -158.683C63.4721 -158.432 63.2098 -156.106 63.341 -153.466C63.4065 -150.826 63.8656 -146.678 64.3903 -144.29C64.9805 -141.901 66.0955 -138.507 66.8825 -136.747C67.7351 -135.05 69.637 -132.41 71.1454 -130.965C72.6538 -129.456 75.3428 -127.571 77.1791 -126.691C78.9499 -125.811 82.1635 -124.679 84.1966 -124.176C86.2953 -123.674 90.5582 -123.045 93.6406 -122.794L99.2808 -122.291C100.068 -125.685 100.068 -128.828 99.8055 -131.405C99.5432 -133.982 98.8873 -137.627 98.4283 -139.387C97.9036 -141.21 96.9198 -143.85 96.1984 -145.232C95.477 -146.615 93.6406 -149.066 92.0666 -150.638C90.5582 -152.209 87.8037 -154.158 86.0329 -154.975C84.1966 -155.855 81.1141 -156.923 79.1466 -157.426Z" fill="#3BEE4C" fill-opacity="0.6"/>
<path d="M175.227 -142.404C174.702 -142.593 173.718 -142.655 173.128 -142.655H173.063C172.472 -142.593 169.718 -142.341 167.029 -142.027C164.34 -141.713 160.339 -140.896 158.175 -140.204C156.011 -139.45 152.928 -138.067 151.289 -137.124C149.649 -136.119 147.55 -134.359 146.632 -133.165C145.714 -132.033 144.271 -129.896 143.484 -128.451C142.763 -126.942 141.648 -123.988 141.123 -121.851C140.599 -119.651 140.14 -115.251 140.14 -112.109V-106.263C147.485 -106.263 151.551 -106.64 153.912 -107.143C156.273 -107.583 159.946 -108.84 162.11 -109.846C164.537 -111.04 167.226 -113.051 169.193 -115.126C170.964 -117.011 172.931 -120.028 173.653 -121.851C174.309 -123.611 175.161 -126.879 175.555 -129.079C175.883 -131.216 176.211 -135.05 176.211 -137.564C176.211 -141.021 176.014 -142.153 175.227 -142.404Z" fill="#3BEE4C" fill-opacity="0.6"/>
<path d="M37.7633 -124.365L38.2224 -130.776C28.0569 -130.713 23.466 -130.273 21.4985 -129.77C19.531 -129.268 16.6453 -128.262 15.0713 -127.571C13.5629 -126.942 10.9395 -125.119 9.16877 -123.611C7.33243 -121.977 5.36492 -119.4 4.31558 -117.2C3.33182 -115.126 2.08573 -111.48 1.49547 -109.092C0.970805 -106.703 0.511719 -102.806 0.511719 -100.481V-96.2067C3.79091 -95.7038 7.52918 -95.8295 10.8084 -96.2067C14.1531 -96.5209 18.4817 -97.4009 20.318 -98.0923C22.2199 -98.7208 25.2368 -100.229 27.0076 -101.361C28.7783 -102.492 31.2049 -104.818 32.3854 -106.577C33.5659 -108.275 35.1399 -111.543 35.9269 -113.806C36.7795 -116.257 37.501 -120.531 37.7633 -124.365Z" fill="#3BEE4C" fill-opacity="0.6"/>
<path d="M215.298 -117.074C213.134 -117.765 208.347 -118.394 204.74 -118.645C198.64 -119.022 198.05 -118.96 197.591 -117.828C197.263 -117.2 197.197 -114.057 197.46 -110.977C197.656 -107.646 198.443 -103.623 199.296 -101.235C200.149 -98.9722 201.723 -95.8924 202.838 -94.321C203.887 -92.8126 205.986 -90.6755 207.428 -89.607C208.871 -88.5385 211.757 -87.03 213.79 -86.2758C215.889 -85.5216 220.152 -84.5788 223.3 -84.2016C226.513 -83.8245 230.317 -83.6988 231.826 -83.8874L234.646 -84.2645C234.646 -90.8641 234.187 -94.761 233.662 -97.1495C233.072 -99.5379 231.957 -102.995 231.17 -104.692C230.317 -106.452 228.612 -108.903 227.366 -110.286C226.12 -111.606 223.824 -113.429 222.185 -114.308C220.545 -115.251 217.463 -116.445 215.298 -117.074Z" fill="#3BEE4C" fill-opacity="0.6"/>
<path d="M75.2772 -100.229C72.9162 -100.732 69.1123 -101.235 66.7513 -101.361C64.3903 -101.486 61.8981 -101.486 61.1767 -101.361C59.9962 -101.172 59.865 -100.732 59.9962 -95.7038C60.1273 -92.6869 60.7832 -87.9728 61.5046 -85.2073C62.2916 -82.4417 63.6033 -79.0476 64.4559 -77.6649C65.3085 -76.2821 67.276 -74.0194 68.85 -72.6994C70.3584 -71.3167 72.9818 -69.6196 74.6214 -68.9911C76.2609 -68.2997 79.0155 -67.3569 80.8518 -66.8541C82.6226 -66.4141 86.8855 -65.7856 90.2303 -65.5341L96.264 -65.0942C96.3296 -68.9911 96.3296 -71.9452 96.264 -74.2079C96.1984 -76.4706 95.7393 -79.8647 95.2146 -81.7503C94.69 -83.6359 93.7062 -86.3387 92.9848 -87.7214C92.2634 -89.1042 90.755 -91.3669 89.5089 -92.7497C88.2628 -94.1325 85.5738 -96.1438 83.4096 -97.2752C81.3109 -98.3437 77.6382 -99.6636 75.2772 -100.229Z" fill="#3BEE4C" fill-opacity="0.6"/>
<path d="M173.981 -78.482L173.653 -81.1218C166.767 -81.059 162.897 -80.619 160.536 -80.1161C158.175 -79.6133 154.634 -78.482 152.666 -77.602C150.699 -76.7221 148.01 -75.2136 146.763 -74.2079C145.517 -73.2651 143.55 -70.9395 142.369 -69.0539C141.189 -67.2312 139.812 -64.1514 139.353 -62.2658C138.828 -60.3802 138.172 -56.6718 137.91 -54.0948C137.647 -51.5178 137.582 -48.3123 137.844 -47.0552C138.238 -44.6668 138.238 -44.6668 141.32 -44.6668C143.091 -44.7296 146.698 -45.1067 149.387 -45.5467C152.076 -46.0495 155.945 -46.9924 157.913 -47.6837C159.946 -48.438 163.028 -50.2607 165.061 -52.0206C166.963 -53.6548 169.193 -56.169 169.915 -57.5517C170.636 -58.9345 171.62 -61.1973 172.144 -62.58C172.603 -63.9628 173.325 -67.4826 173.718 -70.4367C174.046 -73.3908 174.177 -76.9735 173.981 -78.482Z" fill="#3BEE4C" fill-opacity="0.6"/>
<path d="M39.5996 -76.5964C39.3373 -77.0992 37.3698 -77.3506 33.1068 -77.2877C29.8277 -77.2877 25.3024 -76.8478 23.1381 -76.3449C20.9738 -75.8421 17.4323 -74.5222 15.3336 -73.3908C13.235 -72.2595 10.6116 -70.4367 9.62786 -69.3682C8.57852 -68.2368 7.00451 -65.9113 6.08634 -64.1514C5.16816 -62.4543 4.05324 -59.5002 3.52857 -57.7403C3.0039 -55.9176 2.34806 -51.8321 2.08573 -48.6894L1.49547 -42.9069C5.037 -42.2155 8.11943 -42.2155 10.6772 -42.4669C13.1694 -42.6555 16.9732 -43.284 19.0063 -43.7868C21.105 -44.2896 23.9907 -45.2325 25.4335 -45.9238C26.8764 -46.6152 29.1062 -48.1237 30.4835 -49.2551C31.7952 -50.3236 33.5659 -52.3978 34.4841 -53.7805C35.4023 -55.1633 36.6484 -57.7403 37.2386 -59.4373C37.8945 -61.1973 38.747 -65.5341 39.2061 -69.1796C39.5996 -72.8251 39.7964 -76.1564 39.5996 -76.5964Z" fill="#3BEE4C" fill-opacity="0.6"/>
<path d="M213.003 -52.1463C210.642 -52.5235 206.576 -52.8377 203.953 -52.8377C200.017 -52.8377 199.099 -52.6492 198.771 -51.7692C198.575 -51.1407 198.706 -47.8723 199.099 -44.5411C199.558 -41.147 200.477 -36.8729 201.132 -35.113C201.854 -33.2903 203.428 -30.399 204.608 -28.6391C205.789 -26.9421 207.953 -24.6794 209.396 -23.6108C210.839 -22.5423 213.921 -21.0338 216.282 -20.2168C219.627 -19.0854 222.25 -18.7083 228.546 -18.5197L236.613 -18.2683C236.613 -24.1137 236.154 -28.0106 235.629 -30.7133C235.039 -33.3531 233.728 -37.2501 232.744 -39.3242C231.694 -41.3984 229.596 -44.1639 227.956 -45.5467C226.448 -46.9295 223.365 -48.8151 221.201 -49.7579C219.037 -50.7635 215.364 -51.8321 213.003 -52.1463Z" fill="#3BEE4C" fill-opacity="0.6"/>
<path d="M76.9168 -39.3242C74.4246 -39.8271 70.3584 -40.267 67.9318 -40.267C63.6033 -40.267 63.4721 -40.2042 63.013 -38.57C62.8163 -37.5643 62.9474 -33.9817 63.341 -30.5247C63.7345 -27.0678 64.7182 -22.5423 65.5052 -20.4682C66.3578 -18.394 67.9318 -15.5656 69.0467 -14.2457C70.0961 -12.8629 72.4571 -10.7887 74.2934 -9.65736C76.0642 -8.46315 79.4745 -6.95467 81.8356 -6.26328C84.1966 -5.50903 89.1154 -4.75479 92.8536 -4.56622L99.5432 -4.12625C99.5432 -11.4173 99.2153 -15.377 98.8218 -17.6398C98.4938 -19.9025 97.3789 -23.4223 96.3296 -25.4964C95.3458 -27.5706 93.3783 -30.5247 91.9355 -31.9704C90.5582 -33.4789 87.6069 -35.553 85.4427 -36.5587C83.2784 -37.5643 79.409 -38.8214 76.9168 -39.3242Z" fill="#3BEE4C" fill-opacity="0.6"/>
<path d="M38.4191 -5.25761L38.8782 -11.3544C28.1881 -11.2915 23.5316 -10.8516 21.6297 -10.3488C19.7933 -9.84593 16.7109 -8.7774 14.9401 -7.89746C13.1038 -7.0175 10.4804 -5.13191 8.97202 -3.68628C7.52918 -2.1778 5.56167 0.587769 4.6435 2.47337C3.72532 4.35898 2.54482 7.75307 2.08573 10.0158C1.56106 12.2785 1.16756 16.1754 1.16756 18.6267V23.215C10.546 23.215 15.1369 22.7751 17.3667 22.2722C19.6622 21.7694 22.679 20.7637 24.1219 20.0724C25.5647 19.381 28.1225 17.6211 29.7621 16.1126C31.4672 14.6669 33.5003 12.2157 34.2873 10.6443C35.1399 9.073 36.2549 6.24458 36.8451 4.35898C37.4354 2.47337 38.1568 -1.86353 38.4191 -5.25761Z" fill="#3BEE4C" fill-opacity="0.6"/>
<path d="M128.662 -7.45749L125.252 -11.0401L119.94 -5.88615C116.136 -2.11494 113.972 0.650604 112.266 3.85614C110.627 7.12453 109.84 9.63867 109.577 12.5299C109.25 15.6726 109.512 17.6211 110.561 21.0152C111.348 23.4664 113.119 27.112 114.562 29.1861C115.939 31.2603 118.431 34.3401 120.005 36.1L122.957 39.2427C126.892 36.1 129.515 33.523 131.22 31.5745C132.925 29.5632 135.286 26.1063 136.467 23.8436C138.041 20.638 138.566 18.7524 138.762 15.0441C138.959 11.3986 138.697 9.51297 137.647 6.55885C136.86 4.48468 135.286 1.27914 134.106 -0.54361C132.991 -2.36636 130.499 -5.44618 128.662 -7.45749Z" fill="#3BEE4C" fill-opacity="0.6"/>
<path d="M191.951 18.6896C190.377 17.0554 188.737 15.7354 188.278 15.7354C187.884 15.7354 185.589 17.7468 183.228 20.2609C180.801 22.7751 177.85 26.672 176.67 28.8719C175.424 31.1346 174.112 34.6544 173.653 36.7285C173.259 38.8656 173.063 41.6311 173.325 43.0139C173.587 44.3967 174.374 46.9737 175.03 48.6707C175.686 50.4306 177.653 53.8247 179.424 56.2131C181.261 58.6644 183.818 61.6814 185.196 63.0013L187.753 65.3897C193.918 59.2929 196.804 55.9617 198.05 54.0133C199.362 52.1277 200.87 49.1735 201.526 47.4136C202.116 45.7166 202.641 42.4482 202.641 40.1855C202.641 37.9856 202.116 34.7172 201.526 32.9573C200.87 31.2603 199.165 27.9919 197.591 25.7292C196.082 23.5293 193.525 20.3238 191.951 18.6896Z" fill="#3BEE4C" fill-opacity="0.6"/>
<path d="M55.93 34.7172C53.7657 33.2087 51.7982 32.0145 51.5359 32.0145C51.208 32.0145 50.0274 33.3973 48.7814 35.0315C47.5353 36.6657 45.5678 39.8712 44.3872 42.0711C43.2723 44.3338 41.8951 48.1679 41.3704 50.5563C40.649 54.0761 40.5834 55.7732 41.1736 58.7273C41.5671 60.8643 42.6821 63.9441 43.6658 65.6412C44.6496 67.4011 47.6664 70.9208 50.3554 73.4978C53.1099 76.1377 56.3891 78.7775 57.7663 79.4689L60.1929 80.726C61.7014 78.7775 63.341 76.3891 64.7838 74.1264C66.2266 71.9265 67.9974 68.4067 68.7844 66.2697C69.7682 63.6927 70.2272 60.9271 70.2928 57.4702C70.3584 53.0704 70.0961 51.9391 68.3253 48.3564C67.2104 46.1566 64.8494 42.7625 63.0786 40.8769C61.3079 38.9913 58.0942 36.2257 55.93 34.7172Z" fill="#3BEE4C" fill-opacity="0.6"/>
<path d="M148.993 -188.287C147.223 -188.727 143.943 -189.23 141.779 -189.418C139.615 -189.544 136.598 -189.544 135.024 -189.418L132.269 -189.23C132.269 -184.579 132.729 -181.499 133.253 -179.362C133.778 -177.162 134.827 -174.271 135.549 -172.888C136.27 -171.505 137.844 -169.305 139.09 -168.048C140.336 -166.665 143.091 -164.843 145.452 -163.837C148.993 -162.266 150.699 -161.951 156.535 -161.763C160.339 -161.637 163.815 -161.7 164.34 -162.014C165.061 -162.391 165.061 -163.397 164.471 -167.231C164.143 -169.808 163.356 -173.328 162.766 -175.088C162.176 -176.785 160.864 -179.362 159.88 -180.745C158.896 -182.127 156.798 -184.202 155.158 -185.333C153.584 -186.527 150.83 -187.847 148.993 -188.287Z" stroke="#EAF9EE" stroke-width="0.813187"/>
<path d="M42.4197 -184.202V-186.087C31.4672 -186.024 27.1387 -185.647 25.6959 -185.207C24.253 -184.767 22.1544 -183.95 21.105 -183.447C19.9901 -182.882 18.0882 -181.31 16.7765 -179.99C15.4648 -178.67 13.7596 -176.408 12.9726 -174.962C12.1856 -173.454 11.1363 -170.5 10.6116 -168.362C10.0869 -166.163 9.62786 -163.083 9.62786 -161.449V-158.432C23.9251 -158.809 25.5647 -159.06 28.6471 -160.38C30.6147 -161.26 33.1068 -162.706 34.2218 -163.586C35.2711 -164.466 37.1074 -166.854 38.288 -168.865C39.4685 -170.939 40.8457 -174.711 41.436 -177.413C41.9606 -180.116 42.4197 -183.196 42.4197 -184.202Z" stroke="#EAF9EE" stroke-width="0.813187"/>
<path d="M216.872 -170.437C214.38 -171.191 209.724 -171.882 205.658 -172.071C199.23 -172.448 198.64 -172.322 198.181 -171.254C197.853 -170.625 197.853 -167.797 198.05 -165.031C198.312 -162.266 198.968 -158.432 199.558 -156.546C200.149 -154.66 201.329 -151.832 202.116 -150.261C202.969 -148.689 204.936 -146.238 206.51 -144.855C208.019 -143.41 210.576 -141.65 212.085 -140.896C213.659 -140.141 216.61 -139.198 218.643 -138.696C220.742 -138.193 224.349 -137.69 226.71 -137.627C229.071 -137.564 232.154 -137.564 233.596 -137.564L236.22 -137.69C235.433 -145.735 234.842 -149.506 234.449 -151.203C234.121 -152.963 232.941 -156.043 231.891 -158.117C230.842 -160.192 229.333 -162.58 228.546 -163.46C227.694 -164.34 225.726 -166.037 224.087 -167.105C222.447 -168.237 219.234 -169.745 216.872 -170.437Z" stroke="#EAF9EE" stroke-width="0.813187"/>
<path d="M79.1466 -157.426C77.1791 -157.866 73.0473 -158.494 69.9649 -158.746C66.8825 -158.997 64.128 -158.934 63.8 -158.683C63.4721 -158.432 63.2098 -156.106 63.341 -153.466C63.4065 -150.826 63.8656 -146.678 64.3903 -144.29C64.9805 -141.901 66.0955 -138.507 66.8825 -136.747C67.7351 -135.05 69.637 -132.41 71.1454 -130.965C72.6538 -129.456 75.3428 -127.571 77.1791 -126.691C78.9499 -125.811 82.1635 -124.679 84.1966 -124.176C86.2953 -123.674 90.5582 -123.045 93.6406 -122.794L99.2808 -122.291C100.068 -125.685 100.068 -128.828 99.8055 -131.405C99.5432 -133.982 98.8873 -137.627 98.4283 -139.387C97.9036 -141.21 96.9198 -143.85 96.1984 -145.232C95.477 -146.615 93.6406 -149.066 92.0666 -150.638C90.5582 -152.209 87.8037 -154.158 86.0329 -154.975C84.1966 -155.855 81.1141 -156.923 79.1466 -157.426Z" stroke="#EAF9EE" stroke-width="0.813187"/>
<path d="M175.227 -142.404C174.702 -142.593 173.718 -142.655 173.128 -142.655H173.063C172.472 -142.593 169.718 -142.341 167.029 -142.027C164.34 -141.713 160.339 -140.896 158.175 -140.204C156.011 -139.45 152.928 -138.067 151.289 -137.124C149.649 -136.119 147.55 -134.359 146.632 -133.165C145.714 -132.033 144.271 -129.896 143.484 -128.451C142.763 -126.942 141.648 -123.988 141.123 -121.851C140.599 -119.651 140.14 -115.251 140.14 -112.109V-106.263C147.485 -106.263 151.551 -106.64 153.912 -107.143C156.273 -107.583 159.946 -108.84 162.11 -109.846C164.537 -111.04 167.226 -113.051 169.193 -115.126C170.964 -117.011 172.931 -120.028 173.653 -121.851C174.309 -123.611 175.161 -126.879 175.555 -129.079C175.883 -131.216 176.211 -135.05 176.211 -137.564C176.211 -141.021 176.014 -142.153 175.227 -142.404Z" stroke="#EAF9EE" stroke-width="0.813187"/>
<path d="M37.7633 -124.365L38.2224 -130.776C28.0569 -130.713 23.466 -130.273 21.4985 -129.77C19.531 -129.268 16.6453 -128.262 15.0713 -127.571C13.5629 -126.942 10.9395 -125.119 9.16877 -123.611C7.33243 -121.977 5.36492 -119.4 4.31558 -117.2C3.33182 -115.126 2.08573 -111.48 1.49547 -109.092C0.970805 -106.703 0.511719 -102.806 0.511719 -100.481V-96.2067C3.79091 -95.7038 7.52918 -95.8295 10.8084 -96.2067C14.1531 -96.5209 18.4817 -97.4009 20.318 -98.0923C22.2199 -98.7208 25.2368 -100.229 27.0076 -101.361C28.7783 -102.492 31.2049 -104.818 32.3854 -106.577C33.5659 -108.275 35.1399 -111.543 35.9269 -113.806C36.7795 -116.257 37.501 -120.531 37.7633 -124.365Z" stroke="#EAF9EE" stroke-width="0.813187"/>
<path d="M215.298 -117.074C213.134 -117.765 208.347 -118.394 204.74 -118.645C198.64 -119.022 198.05 -118.96 197.591 -117.828C197.263 -117.2 197.197 -114.057 197.46 -110.977C197.656 -107.646 198.443 -103.623 199.296 -101.235C200.149 -98.9722 201.723 -95.8924 202.838 -94.321C203.887 -92.8126 205.986 -90.6755 207.428 -89.607C208.871 -88.5385 211.757 -87.03 213.79 -86.2758C215.889 -85.5216 220.152 -84.5788 223.3 -84.2016C226.513 -83.8245 230.317 -83.6988 231.826 -83.8874L234.646 -84.2645C234.646 -90.8641 234.187 -94.761 233.662 -97.1495C233.072 -99.5379 231.957 -102.995 231.17 -104.692C230.317 -106.452 228.612 -108.903 227.366 -110.286C226.12 -111.606 223.824 -113.429 222.185 -114.308C220.545 -115.251 217.463 -116.445 215.298 -117.074Z" stroke="#EAF9EE" stroke-width="0.813187"/>
<path d="M75.2772 -100.229C72.9162 -100.732 69.1123 -101.235 66.7513 -101.361C64.3903 -101.486 61.8981 -101.486 61.1767 -101.361C59.9962 -101.172 59.865 -100.732 59.9962 -95.7038C60.1273 -92.6869 60.7832 -87.9728 61.5046 -85.2073C62.2916 -82.4417 63.6033 -79.0476 64.4559 -77.6649C65.3085 -76.2821 67.276 -74.0194 68.85 -72.6994C70.3584 -71.3167 72.9818 -69.6196 74.6214 -68.9911C76.2609 -68.2997 79.0155 -67.3569 80.8518 -66.8541C82.6226 -66.4141 86.8855 -65.7856 90.2303 -65.5341L96.264 -65.0942C96.3296 -68.9911 96.3296 -71.9452 96.264 -74.2079C96.1984 -76.4706 95.7393 -79.8647 95.2146 -81.7503C94.69 -83.6359 93.7062 -86.3387 92.9848 -87.7214C92.2634 -89.1042 90.755 -91.3669 89.5089 -92.7497C88.2628 -94.1325 85.5738 -96.1438 83.4096 -97.2752C81.3109 -98.3437 77.6382 -99.6636 75.2772 -100.229Z" stroke="#EAF9EE" stroke-width="0.813187"/>
<path d="M173.981 -78.482L173.653 -81.1218C166.767 -81.059 162.897 -80.619 160.536 -80.1161C158.175 -79.6133 154.634 -78.482 152.666 -77.602C150.699 -76.7221 148.01 -75.2136 146.763 -74.2079C145.517 -73.2651 143.55 -70.9395 142.369 -69.0539C141.189 -67.2312 139.812 -64.1514 139.353 -62.2658C138.828 -60.3802 138.172 -56.6718 137.91 -54.0948C137.647 -51.5178 137.582 -48.3123 137.844 -47.0552C138.238 -44.6668 138.238 -44.6668 141.32 -44.6668C143.091 -44.7296 146.698 -45.1067 149.387 -45.5467C152.076 -46.0495 155.945 -46.9924 157.913 -47.6837C159.946 -48.438 163.028 -50.2607 165.061 -52.0206C166.963 -53.6548 169.193 -56.169 169.915 -57.5517C170.636 -58.9345 171.62 -61.1973 172.144 -62.58C172.603 -63.9628 173.325 -67.4826 173.718 -70.4367C174.046 -73.3908 174.177 -76.9735 173.981 -78.482Z" stroke="#EAF9EE" stroke-width="0.813187"/>
<path d="M39.5996 -76.5964C39.3373 -77.0992 37.3698 -77.3506 33.1068 -77.2877C29.8277 -77.2877 25.3024 -76.8478 23.1381 -76.3449C20.9738 -75.8421 17.4323 -74.5222 15.3336 -73.3908C13.235 -72.2595 10.6116 -70.4367 9.62786 -69.3682C8.57852 -68.2368 7.00451 -65.9113 6.08634 -64.1514C5.16816 -62.4543 4.05324 -59.5002 3.52857 -57.7403C3.0039 -55.9176 2.34806 -51.8321 2.08573 -48.6894L1.49547 -42.9069C5.037 -42.2155 8.11943 -42.2155 10.6772 -42.4669C13.1694 -42.6555 16.9732 -43.284 19.0063 -43.7868C21.105 -44.2896 23.9907 -45.2325 25.4335 -45.9238C26.8764 -46.6152 29.1062 -48.1237 30.4835 -49.2551C31.7952 -50.3236 33.5659 -52.3978 34.4841 -53.7805C35.4023 -55.1633 36.6484 -57.7403 37.2386 -59.4373C37.8945 -61.1973 38.747 -65.5341 39.2061 -69.1796C39.5996 -72.8251 39.7964 -76.1564 39.5996 -76.5964Z" stroke="#EAF9EE" stroke-width="0.813187"/>
<path d="M213.003 -52.1463C210.642 -52.5235 206.576 -52.8377 203.953 -52.8377C200.017 -52.8377 199.099 -52.6492 198.771 -51.7692C198.575 -51.1407 198.706 -47.8723 199.099 -44.5411C199.558 -41.147 200.477 -36.8729 201.132 -35.113C201.854 -33.2903 203.428 -30.399 204.608 -28.6391C205.789 -26.9421 207.953 -24.6794 209.396 -23.6108C210.839 -22.5423 213.921 -21.0338 216.282 -20.2168C219.627 -19.0854 222.25 -18.7083 228.546 -18.5197L236.613 -18.2683C236.613 -24.1137 236.154 -28.0106 235.629 -30.7133C235.039 -33.3531 233.728 -37.2501 232.744 -39.3242C231.694 -41.3984 229.596 -44.1639 227.956 -45.5467C226.448 -46.9295 223.365 -48.8151 221.201 -49.7579C219.037 -50.7635 215.364 -51.8321 213.003 -52.1463Z" stroke="#EAF9EE" stroke-width="0.813187"/>
<path d="M76.9168 -39.3242C74.4246 -39.8271 70.3584 -40.267 67.9318 -40.267C63.6033 -40.267 63.4721 -40.2042 63.013 -38.57C62.8163 -37.5643 62.9474 -33.9817 63.341 -30.5247C63.7345 -27.0678 64.7182 -22.5423 65.5052 -20.4682C66.3578 -18.394 67.9318 -15.5656 69.0467 -14.2457C70.0961 -12.8629 72.4571 -10.7887 74.2934 -9.65736C76.0642 -8.46315 79.4745 -6.95467 81.8356 -6.26328C84.1966 -5.50903 89.1154 -4.75479 92.8536 -4.56622L99.5432 -4.12625C99.5432 -11.4173 99.2153 -15.377 98.8218 -17.6398C98.4938 -19.9025 97.3789 -23.4223 96.3296 -25.4964C95.3458 -27.5706 93.3783 -30.5247 91.9355 -31.9704C90.5582 -33.4789 87.6069 -35.553 85.4427 -36.5587C83.2784 -37.5643 79.409 -38.8214 76.9168 -39.3242Z" stroke="#EAF9EE" stroke-width="0.813187"/>
<path d="M38.4191 -5.25761L38.8782 -11.3544C28.1881 -11.2915 23.5316 -10.8516 21.6297 -10.3488C19.7933 -9.84593 16.7109 -8.7774 14.9401 -7.89746C13.1038 -7.0175 10.4804 -5.13191 8.97202 -3.68628C7.52918 -2.1778 5.56167 0.587769 4.6435 2.47337C3.72532 4.35898 2.54482 7.75307 2.08573 10.0158C1.56106 12.2785 1.16756 16.1754 1.16756 18.6267V23.215C10.546 23.215 15.1369 22.7751 17.3667 22.2722C19.6622 21.7694 22.679 20.7637 24.1219 20.0724C25.5647 19.381 28.1225 17.6211 29.7621 16.1126C31.4672 14.6669 33.5003 12.2157 34.2873 10.6443C35.1399 9.073 36.2549 6.24458 36.8451 4.35898C37.4354 2.47337 38.1568 -1.86353 38.4191 -5.25761Z" stroke="#EAF9EE" stroke-width="0.813187"/>
<path d="M128.662 -7.45749L125.252 -11.0401L119.94 -5.88615C116.136 -2.11494 113.972 0.650604 112.266 3.85614C110.627 7.12453 109.84 9.63867 109.577 12.5299C109.25 15.6726 109.512 17.6211 110.561 21.0152C111.348 23.4664 113.119 27.112 114.562 29.1861C115.939 31.2603 118.431 34.3401 120.005 36.1L122.957 39.2427C126.892 36.1 129.515 33.523 131.22 31.5745C132.925 29.5632 135.286 26.1063 136.467 23.8436C138.041 20.638 138.566 18.7524 138.762 15.0441C138.959 11.3986 138.697 9.51297 137.647 6.55885C136.86 4.48468 135.286 1.27914 134.106 -0.54361C132.991 -2.36636 130.499 -5.44618 128.662 -7.45749Z" stroke="#EAF9EE" stroke-width="0.813187"/>
<path d="M191.951 18.6896C190.377 17.0554 188.737 15.7354 188.278 15.7354C187.884 15.7354 185.589 17.7468 183.228 20.2609C180.801 22.7751 177.85 26.672 176.67 28.8719C175.424 31.1346 174.112 34.6544 173.653 36.7285C173.259 38.8656 173.063 41.6311 173.325 43.0139C173.587 44.3967 174.374 46.9737 175.03 48.6707C175.686 50.4306 177.653 53.8247 179.424 56.2131C181.261 58.6644 183.818 61.6814 185.196 63.0013L187.753 65.3897C193.918 59.2929 196.804 55.9617 198.05 54.0133C199.362 52.1277 200.87 49.1735 201.526 47.4136C202.116 45.7166 202.641 42.4482 202.641 40.1855C202.641 37.9856 202.116 34.7172 201.526 32.9573C200.87 31.2603 199.165 27.9919 197.591 25.7292C196.082 23.5293 193.525 20.3238 191.951 18.6896Z" stroke="#EAF9EE" stroke-width="0.813187"/>
<path d="M55.93 34.7172C53.7657 33.2087 51.7982 32.0145 51.5359 32.0145C51.208 32.0145 50.0274 33.3973 48.7814 35.0315C47.5353 36.6657 45.5678 39.8712 44.3872 42.0711C43.2723 44.3338 41.8951 48.1679 41.3704 50.5563C40.649 54.0761 40.5834 55.7732 41.1736 58.7273C41.5671 60.8643 42.6821 63.9441 43.6658 65.6412C44.6496 67.4011 47.6664 70.9208 50.3554 73.4978C53.1099 76.1377 56.3891 78.7775 57.7663 79.4689L60.1929 80.726C61.7014 78.7775 63.341 76.3891 64.7838 74.1264C66.2266 71.9265 67.9974 68.4067 68.7844 66.2697C69.7682 63.6927 70.2272 60.9271 70.2928 57.4702C70.3584 53.0704 70.0961 51.9391 68.3253 48.3564C67.2104 46.1566 64.8494 42.7625 63.0786 40.8769C61.3079 38.9913 58.0942 36.2257 55.93 34.7172Z" stroke="#EAF9EE" stroke-width="0.813187"/>
</g>
</svg>
