<svg width="191" height="310" viewBox="0 0 191 310" fill="none" xmlns="http://www.w3.org/2000/svg">
<g opacity="0.5">
<path fill-rule="evenodd" clip-rule="evenodd" d="M82.7468 188.626C81.3636 189.151 72.4739 190.301 66.8714 190.679C58.875 191.218 51.8517 190.652 46.7142 189.053L44.7052 188.427L47.1614 193.443L49.6176 198.459L52.6328 198.864C56.8756 199.433 60.3868 200.59 65.3775 203.063C71.5281 206.111 79.154 211.298 79.154 212.434C79.154 213.31 78.1428 213.34 74.223 212.576C66.1351 211 57.2481 207.84 53.5417 205.223C53.0571 204.881 52.5767 204.6 52.4745 204.6C51.9217 204.6 53.8541 207.988 55.2205 209.414C57.2312 211.512 57.8964 212.494 59.5144 215.751C61.9165 220.587 63.8983 227.727 65.0529 235.705C65.6975 240.159 65.6318 241.246 64.7113 241.378C63.8837 241.496 60.8987 236.85 57.758 230.555C53.7847 222.592 52.2753 217.587 52.1332 211.904C52.0642 209.146 51.9025 208.141 51.3587 207.09L50.6712 205.762L50.4737 207.422C49.6113 214.669 47.8532 221.161 44.8476 228.196C43.2283 231.987 42.574 232.719 41.758 231.655C41.3241 231.09 41.273 229.912 41.4101 223.688C41.5761 216.161 42.0206 212.589 43.3521 208.086C44.2112 205.181 45.7157 201.827 46.7939 200.413C47.247 199.819 47.6175 199.174 47.6175 198.979C47.6175 198.784 46.6837 196.739 45.5427 194.435L43.468 190.246L43.2499 193.064C42.6656 200.609 39.2238 211.129 33.8029 221.938C32.2396 225.055 31.8868 225.542 31.2547 225.452C30.5785 225.356 30.5134 225.142 30.4178 222.692C30.1815 216.636 31.4064 205.494 33.0085 199.123C34.5674 192.924 36.1263 189.567 39.7895 184.519C39.9996 184.229 39.432 183.096 37.9637 180.874L35.8328 177.648L35.6067 181.083C35.1901 187.403 32.7429 194.722 27.9092 204.103C23.014 213.603 20.7972 216.677 19.8953 215.218C19.6353 214.797 20.2515 207.264 20.9263 202.609C22.8202 189.547 26.1823 180.526 30.8789 175.904C31.8692 174.929 32.6792 173.979 32.6792 173.793C32.6792 173.382 24.6556 165.007 23.4197 164.127L22.546 163.504L22.6701 167.131C22.9128 174.22 21.078 182.038 16.6045 192.982C14.7581 197.498 9.8703 207.427 9.2326 207.956C8.98728 208.16 8.53713 208.231 8.23305 208.114C7.73743 207.924 7.70092 207.374 7.88251 202.848C8.55207 186.146 12.5336 171.002 18.2122 163.558L20.0191 161.189L17.0616 158.981C13.9103 156.628 6.8076 152.019 6.62038 152.206C6.55896 152.267 6.74719 153.139 7.03898 154.143C7.82772 156.857 7.80317 168.08 6.99849 172.566C5.94649 178.434 4.1924 185.224 2.17108 191.253C-0.512507 199.258 -0.70804 199.687 -1.60932 199.559C-2.51525 199.431 -2.61749 198.819 -3.18183 190.16C-4.25772 173.659 -2.02992 158.601 2.47449 151.927C3.03717 151.094 3.45079 150.365 3.39369 150.308C3.17494 150.089 -6.29199 145.531 -7.14547 145.233L-8.04376 144.92L-7.25036 147.106C-4.9711 153.384 -4.94622 164.215 -7.18265 176.218C-8.80296 184.914 -12.4808 197.749 -13.5444 198.42C-14.5217 199.037 -14.7985 198.268 -15.4558 193.115C-18.1959 171.634 -16.3704 153.084 -10.7283 145.077C-10.3672 144.565 -10.1252 144.095 -10.1909 144.033C-10.7981 143.461 -26.64 138.328 -26.9235 138.611C-26.9896 138.677 -26.6121 139.995 -26.085 141.54C-22.3139 152.589 -22.8155 167.447 -27.5708 185.566C-29.2665 192.026 -30.7062 196.315 -31.2496 196.523C-31.983 196.805 -32.6124 196.091 -32.8411 194.718C-32.9543 194.037 -33.35 191.762 -33.7204 189.662C-36.7001 172.765 -36.906 155.271 -34.2317 146.176C-33.495 143.67 -32.1519 140.608 -31.1152 139.072L-30.1309 137.614L-31.0093 137.426C-31.4923 137.323 -33.9034 136.779 -36.3672 136.217C-42.6041 134.794 -50.2396 133.446 -58.794 132.256C-69.0314 130.833 -68.2376 131.022 -68.2376 130.018C-68.2376 129.163 -68.2307 129.161 -66.1629 129.385C-56.9648 130.383 -36.5365 133.96 -31.2042 135.507L-30.1884 135.802L-29.64 132.344C-28.7503 126.737 -26.2649 121.366 -21.7997 115.403C-19.205 111.938 -12.8317 105.295 -8.65026 101.698C-5.03419 98.5874 2.38818 92.9872 4.95591 91.433C6.62967 90.4198 6.87698 90.3548 7.33012 90.8079C7.78324 91.2614 7.69162 91.683 6.45041 94.8578C4.63789 99.4933 -0.210097 109.21 -2.99128 113.783C-8.98952 123.643 -16.4786 131.743 -23.2716 135.715L-25.4439 136.986L-21.8607 138.071C-19.8899 138.668 -16.3408 139.839 -13.9743 140.674C-11.6077 141.509 -9.63519 142.192 -9.59071 142.192C-9.54656 142.192 -9.40614 141.632 -9.279 140.947C-7.12787 129.374 5.63876 116.9 25.1725 107.286C29.4033 105.204 29.7436 105.105 30.3129 105.791C30.5991 106.136 30.2087 106.986 28.596 109.525C23.4161 117.684 17.061 125.676 10.7975 131.908C5.82466 136.855 1.80294 139.944 -2.57334 142.175L-5.79172 143.817L-3.40325 144.898C-2.08967 145.493 0.224444 146.619 1.73986 147.4L4.49449 148.821L7.21724 146.066C8.7144 144.551 10.8333 142.73 11.9258 142.019C16.8014 138.845 24.3021 135.829 32.0527 133.927C37.7731 132.522 45.6204 131.195 48.6004 131.128C50.8986 131.076 51.1031 131.125 51.1031 131.734C51.1031 132.531 46.2794 135.998 39.7656 139.882C28.7793 146.434 18.6262 150.419 11.3572 151.033L8.79075 151.249L11.8551 153.178C13.5401 154.238 16.396 156.219 18.2012 157.579L21.4837 160.051L23.2066 158.648C29.8253 153.257 40.9009 150.309 57.7424 149.457C65.8204 149.048 68.0332 149.237 68.0332 150.336C68.0332 151.521 56.7405 156.749 47.6175 159.787C40.2828 162.229 35.6811 163.172 30.1825 163.358L25.5283 163.516L27.9125 165.828C29.2238 167.1 31.2258 169.232 32.3618 170.566L34.4276 172.992L35.9599 171.814C42.7323 166.609 56.6562 165.734 74.3316 169.405C77.8255 170.13 78.3643 170.389 78.0555 171.193C77.6715 172.194 66.3266 175.359 58.0743 176.769C52.1651 177.778 42.9806 177.81 39.4207 176.834C38.1074 176.474 37.1371 176.337 37.2642 176.531C40.7608 181.841 42.0063 183.687 42.0943 183.687C42.1537 183.687 43.0318 183.402 44.0456 183.053C47.325 181.924 50.574 181.59 56.3365 181.787C63.7459 182.04 73.34 183.833 80.9798 186.394C83.4878 187.234 84.1633 188.087 82.7468 188.626Z" fill="#93C4A0"/>
<path fill-rule="evenodd" clip-rule="evenodd" d="M82.7468 188.626C81.3636 189.151 72.4739 190.301 66.8714 190.679C58.875 191.218 51.8517 190.652 46.7142 189.053L44.7052 188.427L47.1614 193.443L49.6176 198.459L52.6328 198.864C56.8756 199.433 60.3868 200.59 65.3775 203.063C71.5281 206.111 79.154 211.298 79.154 212.434C79.154 213.31 78.1428 213.34 74.223 212.576C66.1351 211 57.2481 207.84 53.5417 205.223C53.0571 204.881 52.5767 204.6 52.4745 204.6C51.9217 204.6 53.8541 207.988 55.2205 209.414C57.2312 211.512 57.8964 212.494 59.5144 215.751C61.9165 220.587 63.8983 227.727 65.0529 235.705C65.6975 240.159 65.6318 241.246 64.7113 241.378C63.8837 241.496 60.8987 236.85 57.758 230.555C53.7847 222.592 52.2753 217.587 52.1332 211.904C52.0642 209.146 51.9025 208.141 51.3587 207.09L50.6712 205.762L50.4737 207.422C49.6113 214.669 47.8532 221.161 44.8476 228.196C43.2283 231.987 42.574 232.719 41.758 231.655C41.3241 231.09 41.273 229.912 41.4101 223.688C41.5761 216.161 42.0206 212.589 43.3521 208.086C44.2112 205.181 45.7157 201.827 46.7939 200.413C47.247 199.819 47.6175 199.174 47.6175 198.979C47.6175 198.784 46.6837 196.739 45.5427 194.435L43.468 190.246L43.2499 193.064C42.6656 200.609 39.2238 211.129 33.8029 221.938C32.2396 225.055 31.8868 225.542 31.2547 225.452C30.5785 225.356 30.5134 225.142 30.4178 222.692C30.1815 216.636 31.4064 205.494 33.0085 199.123C34.5674 192.924 36.1263 189.567 39.7895 184.519C39.9996 184.229 39.432 183.096 37.9637 180.874L35.8328 177.648L35.6067 181.083C35.1901 187.403 32.7429 194.722 27.9092 204.103C23.014 213.603 20.7972 216.677 19.8953 215.218C19.6353 214.797 20.2515 207.264 20.9263 202.609C22.8202 189.547 26.1823 180.526 30.8789 175.904C31.8692 174.929 32.6792 173.979 32.6792 173.793C32.6792 173.382 24.6556 165.007 23.4197 164.127L22.546 163.504L22.6701 167.131C22.9128 174.22 21.078 182.038 16.6045 192.982C14.7581 197.498 9.8703 207.427 9.2326 207.956C8.98728 208.16 8.53713 208.231 8.23305 208.114C7.73743 207.924 7.70092 207.374 7.88251 202.848C8.55207 186.146 12.5336 171.002 18.2122 163.558L20.0191 161.189L17.0616 158.981C13.9103 156.628 6.8076 152.019 6.62038 152.206C6.55896 152.267 6.74719 153.139 7.03898 154.143C7.82772 156.857 7.80317 168.08 6.99849 172.566C5.94649 178.434 4.1924 185.224 2.17108 191.253C-0.512507 199.258 -0.70804 199.687 -1.60932 199.559C-2.51525 199.431 -2.61749 198.819 -3.18183 190.16C-4.25772 173.659 -2.02992 158.601 2.47449 151.927C3.03717 151.094 3.45079 150.365 3.39369 150.308C3.17494 150.089 -6.29199 145.531 -7.14547 145.233L-8.04376 144.92L-7.25036 147.106C-4.9711 153.384 -4.94622 164.215 -7.18265 176.218C-8.80296 184.914 -12.4808 197.749 -13.5444 198.42C-14.5217 199.037 -14.7985 198.268 -15.4558 193.115C-18.1959 171.634 -16.3704 153.084 -10.7283 145.077C-10.3672 144.565 -10.1252 144.095 -10.1909 144.033C-10.7981 143.461 -26.64 138.328 -26.9235 138.611C-26.9896 138.677 -26.6121 139.995 -26.085 141.54C-22.3139 152.589 -22.8155 167.447 -27.5708 185.566C-29.2665 192.026 -30.7062 196.315 -31.2496 196.523C-31.983 196.805 -32.6124 196.091 -32.8411 194.718C-32.9543 194.037 -33.35 191.762 -33.7204 189.662C-36.7001 172.765 -36.906 155.271 -34.2317 146.176C-33.495 143.67 -32.1519 140.608 -31.1152 139.072L-30.1309 137.614L-31.0093 137.426C-31.4923 137.323 -33.9034 136.779 -36.3672 136.217C-42.6041 134.794 -50.2396 133.446 -58.794 132.256C-69.0314 130.833 -68.2376 131.022 -68.2376 130.018C-68.2376 129.163 -68.2307 129.161 -66.1629 129.385C-56.9648 130.383 -36.5365 133.96 -31.2042 135.507L-30.1884 135.802L-29.64 132.344C-28.7503 126.737 -26.2649 121.366 -21.7997 115.403C-19.205 111.938 -12.8317 105.295 -8.65026 101.698C-5.03419 98.5874 2.38818 92.9872 4.95591 91.433C6.62967 90.4198 6.87698 90.3548 7.33012 90.8079C7.78324 91.2614 7.69162 91.683 6.45041 94.8578C4.63789 99.4933 -0.210097 109.21 -2.99128 113.783C-8.98952 123.643 -16.4786 131.743 -23.2716 135.715L-25.4439 136.986L-21.8607 138.071C-19.8899 138.668 -16.3408 139.839 -13.9743 140.674C-11.6077 141.509 -9.63519 142.192 -9.59071 142.192C-9.54656 142.192 -9.40614 141.632 -9.279 140.947C-7.12787 129.374 5.63876 116.9 25.1725 107.286C29.4033 105.204 29.7436 105.105 30.3129 105.791C30.5991 106.136 30.2087 106.986 28.596 109.525C23.4161 117.684 17.061 125.676 10.7975 131.908C5.82466 136.855 1.80294 139.944 -2.57334 142.175L-5.79172 143.817L-3.40325 144.898C-2.08967 145.493 0.224444 146.619 1.73986 147.4L4.49449 148.821L7.21724 146.066C8.7144 144.551 10.8333 142.73 11.9258 142.019C16.8014 138.845 24.3021 135.829 32.0527 133.927C37.7731 132.522 45.6204 131.195 48.6004 131.128C50.8986 131.076 51.1031 131.125 51.1031 131.734C51.1031 132.531 46.2794 135.998 39.7656 139.882C28.7793 146.434 18.6262 150.419 11.3572 151.033L8.79075 151.249L11.8551 153.178C13.5401 154.238 16.396 156.219 18.2012 157.579L21.4837 160.051L23.2066 158.648C29.8253 153.257 40.9009 150.309 57.7424 149.457C65.8204 149.048 68.0332 149.237 68.0332 150.336C68.0332 151.521 56.7405 156.749 47.6175 159.787C40.2828 162.229 35.6811 163.172 30.1825 163.358L25.5283 163.516L27.9125 165.828C29.2238 167.1 31.2258 169.232 32.3618 170.566L34.4276 172.992L35.9599 171.814C42.7323 166.609 56.6562 165.734 74.3316 169.405C77.8255 170.13 78.3643 170.389 78.0555 171.193C77.6715 172.194 66.3266 175.359 58.0743 176.769C52.1651 177.778 42.9806 177.81 39.4207 176.834C38.1074 176.474 37.1371 176.337 37.2642 176.531C40.7608 181.841 42.0063 183.687 42.0943 183.687C42.1537 183.687 43.0318 183.402 44.0456 183.053C47.325 181.924 50.574 181.59 56.3365 181.787C63.7459 182.04 73.34 183.833 80.9798 186.394C83.4878 187.234 84.1633 188.087 82.7468 188.626Z" fill="#4CD169"/>
</g>
<g opacity="0.2">
<path fill-rule="evenodd" clip-rule="evenodd" d="M-21.4678 252.101C-22.3271 251.4 -26.4036 246.062 -28.748 242.569C-32.0939 237.582 -34.3577 232.812 -35.2448 228.879L-35.5917 227.341L-37.9264 230.814L-40.2611 234.287L-39.394 236.395C-38.1736 239.362 -37.6091 242.074 -37.3441 246.239C-37.0175 251.372 -37.5268 258.264 -38.2637 258.69C-38.8324 259.018 -39.2302 258.373 -40.2031 255.543C-42.2107 249.704 -43.4899 242.753 -43.1797 239.368C-43.1395 238.925 -43.1376 238.508 -43.1759 238.442C-43.383 238.083 -44.8571 240.606 -45.2706 242.027C-45.879 244.118 -46.2671 244.918 -47.7742 247.188C-50.0122 250.558 -53.9031 254.519 -58.6478 258.258C-61.2967 260.345 -62.0262 260.709 -62.4568 260.161C-62.8437 259.669 -60.9474 255.991 -58.0391 251.595C-54.3603 246.033 -51.6778 243.178 -48.0429 240.957C-46.2795 239.879 -45.6874 239.397 -45.2095 238.651L-44.6055 237.707L-45.7565 238.201C-50.7826 240.356 -55.6535 241.647 -61.3451 242.333C-64.4114 242.702 -65.1319 242.552 -64.7472 241.624C-64.5427 241.131 -63.7976 240.656 -59.7076 238.413C-54.7609 235.701 -52.2762 234.651 -48.8555 233.828C-46.6485 233.297 -43.9081 233.017 -42.5869 233.187C-42.0318 233.258 -41.4742 233.257 -41.3477 233.184C-41.2213 233.111 -40.2442 231.739 -39.1765 230.135L-37.2355 227.22L-39.1456 228.134C-44.2609 230.581 -52.3771 232.289 -61.4222 232.821C-64.0304 232.975 -64.4787 232.928 -64.6571 232.484C-64.848 232.009 -64.7334 231.887 -63.1797 230.907C-59.3384 228.485 -51.649 225.105 -46.9146 223.758C-42.3079 222.447 -39.5453 222.201 -34.8973 222.687C-34.6305 222.715 -34.1077 221.922 -33.2156 220.136L-31.921 217.545L-34.2344 218.685C-38.4917 220.783 -44.1581 221.937 -52.0563 222.314C-60.055 222.697 -62.8807 222.411 -62.2717 221.278C-62.0961 220.952 -56.9769 218.53 -53.7031 217.224C-44.5178 213.559 -37.4038 212.361 -32.6447 213.677C-31.6415 213.954 -30.7215 214.124 -30.6005 214.054C-30.3342 213.9 -27.9051 205.556 -27.7971 204.424L-27.7207 203.624L-30.0274 205.063C-34.5365 207.876 -40.2976 209.615 -49.0752 210.812C-52.6977 211.306 -60.9718 211.854 -61.5541 211.639C-61.7782 211.556 -61.993 211.29 -62.0311 211.049C-62.0933 210.656 -61.7501 210.426 -58.7455 208.849C-47.6565 203.026 -36.3373 199.936 -29.3793 200.832L-27.1651 201.117L-26.84 198.37C-26.4936 195.444 -26.1638 189.108 -26.3552 189.056C-26.4183 189.04 -26.9135 189.488 -27.4556 190.054C-28.9211 191.582 -36.2133 195.771 -39.4261 196.93C-43.6279 198.446 -48.6912 199.851 -53.3609 200.798C-59.5606 202.056 -59.9128 202.09 -60.1673 201.457C-60.4231 200.821 -60.0644 200.526 -54.6572 196.915C-44.3526 190.035 -33.7465 185.839 -27.7278 186.262C-26.9761 186.314 -26.3483 186.31 -26.3326 186.251C-26.2726 186.028 -26.8615 178.177 -26.9881 177.511L-27.1215 176.811L-28.2425 178.145C-31.463 181.976 -38.482 186.05 -47.1087 189.096C-53.359 191.302 -63.0657 193.724 -63.8995 193.285C-64.6657 192.882 -64.2705 192.415 -61.1729 190.057C-48.2599 180.231 -35.5386 174.466 -28.2294 175.128C-27.7615 175.17 -27.366 175.151 -27.3505 175.085C-27.2066 174.477 -29.8107 162.274 -30.1009 162.196C-30.1685 162.178 -30.8825 162.917 -31.6875 163.837C-37.4441 170.424 -47.2741 175.665 -60.8133 179.368C-65.6408 180.688 -68.9631 181.36 -69.302 181.086C-69.7594 180.715 -69.5321 180.039 -68.727 179.377C-68.3274 179.048 -66.9992 177.939 -65.7755 176.912C-55.927 168.648 -44.6519 161.96 -37.7476 160.287C-35.8454 159.827 -33.3555 159.551 -31.9703 159.648L-30.6552 159.741L-30.8628 159.101C-30.9768 158.749 -31.5268 156.98 -32.0852 155.171C-33.4986 150.59 -35.4843 145.13 -37.9176 139.134C-40.8296 131.957 -40.6544 132.543 -40.0029 132.167C-39.448 131.846 -39.4441 131.85 -38.815 133.276C-36.0163 139.619 -30.6843 154.215 -29.6905 158.255L-29.5012 159.025L-27.052 158.085C-23.0797 156.562 -18.6635 156.162 -13.1211 156.826C-9.90029 157.211 -3.20203 158.858 0.699016 160.224C4.07224 161.405 10.4871 164.124 12.4577 165.208C13.7422 165.914 13.8771 166.05 13.7528 166.514C13.6283 166.978 13.3204 167.076 10.7952 167.46C7.10805 168.021 -1.01391 168.516 -5.02281 168.424C-13.6688 168.226 -21.7305 166.4 -26.8534 163.481L-28.4917 162.547L-27.8536 165.279C-27.5025 166.781 -26.9331 169.523 -26.5882 171.372C-26.2431 173.22 -25.9474 174.756 -25.9308 174.785C-25.9142 174.814 -25.498 174.695 -25.0062 174.521C-16.69 171.581 -3.81271 175.192 9.74431 184.266C12.6807 186.231 12.8724 186.415 12.6407 187.041C12.5238 187.357 11.8263 187.421 9.57398 187.327C2.33881 187.022 -5.22806 185.892 -11.6187 184.162C-16.6923 182.789 -20.2031 181.336 -23.2909 179.333L-25.5617 177.859L-25.3687 179.814C-25.2626 180.889 -25.1263 182.813 -25.0654 184.089L-24.9553 186.409L-22.1477 187.144C-20.6036 187.547 -18.628 188.24 -17.7573 188.683C-13.8711 190.657 -9.10384 194.395 -4.96548 198.712C-1.91089 201.898 1.89035 206.493 3.05057 208.401C3.94519 209.873 3.98971 210.024 3.59507 210.252C3.07764 210.551 -0.979393 208.72 -5.94039 205.948C-14.3081 201.273 -20.6979 196.178 -23.8195 191.691L-24.9215 190.106L-25.025 192.818C-25.0819 194.308 -25.2971 196.904 -25.5031 198.584L-25.8778 201.641L-24.3215 202.233C-18.3436 204.508 -12.2815 210.591 -5.41853 221.201C-2.12669 226.289 -1.42021 227.796 -2.13323 228.208C-2.90269 228.652 -10.5259 223.283 -15.9149 218.5C-20.2477 214.656 -22.5836 212.023 -24.7649 208.525L-26.6111 205.564L-27.2181 207.977C-27.5518 209.304 -28.1854 211.402 -28.6257 212.639L-29.426 214.889L-28.0874 215.442C-22.1722 217.886 -16.3879 226.594 -12.1479 239.439C-11.3095 241.978 -11.2757 242.425 -11.9133 242.526C-12.7065 242.651 -19.0108 236.475 -23.0172 231.648C-25.886 228.192 -29.3479 222.244 -30.0481 219.568C-30.3066 218.581 -30.5817 217.9 -30.6594 218.055C-32.7956 222.314 -33.5267 223.814 -33.4937 223.871C-33.4714 223.909 -32.9572 224.372 -32.351 224.899C-30.3901 226.605 -28.9558 228.588 -26.9246 232.401C-24.3129 237.304 -21.8824 244.202 -20.6816 250.118C-20.2874 252.061 -20.5879 252.819 -21.4678 252.101Z" fill="#93C4A0"/>
<path fill-rule="evenodd" clip-rule="evenodd" d="M-21.4678 252.101C-22.3271 251.4 -26.4036 246.062 -28.748 242.569C-32.0939 237.582 -34.3577 232.812 -35.2448 228.879L-35.5917 227.341L-37.9264 230.814L-40.2611 234.287L-39.394 236.395C-38.1736 239.362 -37.6091 242.074 -37.3441 246.239C-37.0175 251.372 -37.5268 258.264 -38.2637 258.69C-38.8324 259.018 -39.2302 258.373 -40.2031 255.543C-42.2107 249.704 -43.4899 242.753 -43.1797 239.368C-43.1395 238.925 -43.1376 238.508 -43.1759 238.442C-43.383 238.083 -44.8571 240.606 -45.2706 242.027C-45.879 244.118 -46.2671 244.918 -47.7742 247.188C-50.0122 250.558 -53.9031 254.519 -58.6478 258.258C-61.2967 260.345 -62.0262 260.709 -62.4568 260.161C-62.8437 259.669 -60.9474 255.991 -58.0391 251.595C-54.3603 246.033 -51.6778 243.178 -48.0429 240.957C-46.2795 239.879 -45.6874 239.397 -45.2095 238.651L-44.6055 237.707L-45.7565 238.201C-50.7826 240.356 -55.6535 241.647 -61.3451 242.333C-64.4114 242.702 -65.1319 242.552 -64.7472 241.624C-64.5427 241.131 -63.7976 240.656 -59.7076 238.413C-54.7609 235.701 -52.2762 234.651 -48.8555 233.828C-46.6485 233.297 -43.9081 233.017 -42.5869 233.187C-42.0318 233.258 -41.4742 233.257 -41.3477 233.184C-41.2213 233.111 -40.2442 231.739 -39.1765 230.135L-37.2355 227.22L-39.1456 228.134C-44.2609 230.581 -52.3771 232.289 -61.4222 232.821C-64.0304 232.975 -64.4787 232.928 -64.6571 232.484C-64.848 232.009 -64.7334 231.887 -63.1797 230.907C-59.3384 228.485 -51.649 225.105 -46.9146 223.758C-42.3079 222.447 -39.5453 222.201 -34.8973 222.687C-34.6305 222.715 -34.1077 221.922 -33.2156 220.136L-31.921 217.545L-34.2344 218.685C-38.4917 220.783 -44.1581 221.937 -52.0563 222.314C-60.055 222.697 -62.8807 222.411 -62.2717 221.278C-62.0961 220.952 -56.9769 218.53 -53.7031 217.224C-44.5178 213.559 -37.4038 212.361 -32.6447 213.677C-31.6415 213.954 -30.7215 214.124 -30.6005 214.054C-30.3342 213.9 -27.9051 205.556 -27.7971 204.424L-27.7207 203.624L-30.0274 205.063C-34.5365 207.876 -40.2976 209.615 -49.0752 210.812C-52.6977 211.306 -60.9718 211.854 -61.5541 211.639C-61.7782 211.556 -61.993 211.29 -62.0311 211.049C-62.0933 210.656 -61.7501 210.426 -58.7455 208.849C-47.6565 203.026 -36.3373 199.936 -29.3793 200.832L-27.1651 201.117L-26.84 198.37C-26.4936 195.444 -26.1638 189.108 -26.3552 189.056C-26.4183 189.04 -26.9135 189.488 -27.4556 190.054C-28.9211 191.582 -36.2133 195.771 -39.4261 196.93C-43.6279 198.446 -48.6912 199.851 -53.3609 200.798C-59.5606 202.056 -59.9128 202.09 -60.1673 201.457C-60.4231 200.821 -60.0644 200.526 -54.6572 196.915C-44.3526 190.035 -33.7465 185.839 -27.7278 186.262C-26.9761 186.314 -26.3483 186.31 -26.3326 186.251C-26.2726 186.028 -26.8615 178.177 -26.9881 177.511L-27.1215 176.811L-28.2425 178.145C-31.463 181.976 -38.482 186.05 -47.1087 189.096C-53.359 191.302 -63.0657 193.724 -63.8995 193.285C-64.6657 192.882 -64.2705 192.415 -61.1729 190.057C-48.2599 180.231 -35.5386 174.466 -28.2294 175.128C-27.7615 175.17 -27.366 175.151 -27.3505 175.085C-27.2066 174.477 -29.8107 162.274 -30.1009 162.196C-30.1685 162.178 -30.8825 162.917 -31.6875 163.837C-37.4441 170.424 -47.2741 175.665 -60.8133 179.368C-65.6408 180.688 -68.9631 181.36 -69.302 181.086C-69.7594 180.715 -69.5321 180.039 -68.727 179.377C-68.3274 179.048 -66.9992 177.939 -65.7755 176.912C-55.927 168.648 -44.6519 161.96 -37.7476 160.287C-35.8454 159.827 -33.3555 159.551 -31.9703 159.648L-30.6552 159.741L-30.8628 159.101C-30.9768 158.749 -31.5268 156.98 -32.0852 155.171C-33.4986 150.59 -35.4843 145.13 -37.9176 139.134C-40.8296 131.957 -40.6544 132.543 -40.0029 132.167C-39.448 131.846 -39.4441 131.85 -38.815 133.276C-36.0163 139.619 -30.6843 154.215 -29.6905 158.255L-29.5012 159.025L-27.052 158.085C-23.0797 156.562 -18.6635 156.162 -13.1211 156.826C-9.90029 157.211 -3.20203 158.858 0.699016 160.224C4.07224 161.405 10.4871 164.124 12.4577 165.208C13.7422 165.914 13.8771 166.05 13.7528 166.514C13.6283 166.978 13.3204 167.076 10.7952 167.46C7.10805 168.021 -1.01391 168.516 -5.02281 168.424C-13.6688 168.226 -21.7305 166.4 -26.8534 163.481L-28.4917 162.547L-27.8536 165.279C-27.5025 166.781 -26.9331 169.523 -26.5882 171.372C-26.2431 173.22 -25.9474 174.756 -25.9308 174.785C-25.9142 174.814 -25.498 174.695 -25.0062 174.521C-16.69 171.581 -3.81271 175.192 9.74431 184.266C12.6807 186.231 12.8724 186.415 12.6407 187.041C12.5238 187.357 11.8263 187.421 9.57398 187.327C2.33881 187.022 -5.22806 185.892 -11.6187 184.162C-16.6923 182.789 -20.2031 181.336 -23.2909 179.333L-25.5617 177.859L-25.3687 179.814C-25.2626 180.889 -25.1263 182.813 -25.0654 184.089L-24.9553 186.409L-22.1477 187.144C-20.6036 187.547 -18.628 188.24 -17.7573 188.683C-13.8711 190.657 -9.10384 194.395 -4.96548 198.712C-1.91089 201.898 1.89035 206.493 3.05057 208.401C3.94519 209.873 3.98971 210.024 3.59507 210.252C3.07764 210.551 -0.979393 208.72 -5.94039 205.948C-14.3081 201.273 -20.6979 196.178 -23.8195 191.691L-24.9215 190.106L-25.025 192.818C-25.0819 194.308 -25.2971 196.904 -25.5031 198.584L-25.8778 201.641L-24.3215 202.233C-18.3436 204.508 -12.2815 210.591 -5.41853 221.201C-2.12669 226.289 -1.42021 227.796 -2.13323 228.208C-2.90269 228.652 -10.5259 223.283 -15.9149 218.5C-20.2477 214.656 -22.5836 212.023 -24.7649 208.525L-26.6111 205.564L-27.2181 207.977C-27.5518 209.304 -28.1854 211.402 -28.6257 212.639L-29.426 214.889L-28.0874 215.442C-22.1722 217.886 -16.3879 226.594 -12.1479 239.439C-11.3095 241.978 -11.2757 242.425 -11.9133 242.526C-12.7065 242.651 -19.0108 236.475 -23.0172 231.648C-25.886 228.192 -29.3479 222.244 -30.0481 219.568C-30.3066 218.581 -30.5817 217.9 -30.6594 218.055C-32.7956 222.314 -33.5267 223.814 -33.4937 223.871C-33.4714 223.909 -32.9572 224.372 -32.351 224.899C-30.3901 226.605 -28.9558 228.588 -26.9246 232.401C-24.3129 237.304 -21.8824 244.202 -20.6816 250.118C-20.2874 252.061 -20.5879 252.819 -21.4678 252.101Z" fill="#4CD169"/>
</g>
<path fill-rule="evenodd" clip-rule="evenodd" d="M135.124 127.108C133.967 128.032 125.855 131.843 120.636 133.916C113.187 136.873 106.327 138.481 100.946 138.529L98.8423 138.547L102.714 142.572L106.586 146.598L109.58 146.061C113.794 145.306 117.491 145.335 122.999 146.164C129.787 147.186 138.633 149.794 138.98 150.876C139.248 151.71 138.294 152.047 134.329 152.518C126.146 153.49 116.719 153.198 112.389 151.838C111.823 151.66 111.28 151.54 111.183 151.572C110.657 151.741 113.532 154.375 115.269 155.315C117.825 156.699 118.758 157.431 121.294 160.037C125.06 163.907 129.129 170.1 132.667 177.343C134.642 181.387 134.912 182.441 134.075 182.849C133.324 183.214 129.062 179.703 124.147 174.67C117.93 168.302 114.963 163.998 113.09 158.63C112.182 156.025 111.721 155.117 110.882 154.283L109.821 153.229L110.141 154.87C111.535 162.034 111.845 168.752 111.133 176.369C110.75 180.473 110.351 181.371 109.249 180.607C108.663 180.201 108.254 179.095 106.483 173.128C104.34 165.91 103.671 162.373 103.563 157.679C103.493 154.65 103.9 150.996 104.495 149.321C104.744 148.617 104.9 147.889 104.84 147.704C104.781 147.518 103.267 145.857 101.476 144.012L98.2202 140.657L98.8738 143.407C100.624 150.77 100.562 161.838 98.7045 173.787C98.1688 177.232 97.9817 177.804 97.3523 177.911C96.6791 178.027 96.5517 177.843 95.7119 175.539C93.6359 169.846 91.3965 158.862 90.9746 152.306C90.5641 145.928 91.0223 142.255 92.9673 136.329C93.0788 135.989 92.1919 135.083 90.1146 133.416L87.0998 130.996L87.9343 134.335C89.4695 140.48 89.3765 148.197 87.6413 158.606C85.8842 169.148 84.7132 172.753 83.4084 171.639C83.0323 171.318 81.3164 163.957 80.536 159.318C78.347 146.303 78.7907 136.685 81.8497 130.849C82.4948 129.619 82.9756 128.466 82.9186 128.289C82.7932 127.898 72.5935 122.376 71.1478 121.916L70.1258 121.59L71.3524 125.005C73.7501 131.68 74.393 139.686 73.4785 151.473C73.101 156.338 71.4818 167.285 71.0363 167.984C70.8651 168.253 70.4582 168.458 70.1329 168.44C69.6029 168.41 69.4 167.897 68.1897 163.533C63.7222 147.426 62.8843 131.789 66.0158 122.966L67.0122 120.158L63.5212 118.959C59.8014 117.682 51.6299 115.465 51.5087 115.7C51.4691 115.777 51.9148 116.55 52.4995 117.417C54.0799 119.759 57.487 130.453 58.0921 134.971C58.884 140.879 59.2892 147.88 59.2074 154.239C59.0989 162.68 59.0441 163.149 58.1468 163.303C57.2449 163.457 56.9605 162.906 53.7767 154.834C47.7087 139.452 45.2274 124.434 47.4761 116.702C47.7571 115.736 47.9282 114.916 47.8564 114.879C47.5812 114.738 37.1742 113.291 36.2705 113.269L35.3195 113.245L36.743 115.084C40.8323 120.365 44.1665 130.67 45.7058 142.782C46.8211 151.557 47.2424 164.902 46.4347 165.866C45.6926 166.752 45.194 166.104 42.9931 161.399C33.8184 141.783 29.8866 123.563 32.8115 114.216C32.9987 113.617 33.0856 113.096 33.0041 113.057C32.2511 112.698 15.5983 112.652 15.415 113.009C15.3723 113.092 16.1346 114.232 17.1087 115.542C24.0763 124.909 28.1403 139.209 29.1506 157.914C29.5107 164.584 29.4507 169.107 28.997 169.472C28.3848 169.964 27.5674 169.477 26.9301 168.24C26.6141 167.626 25.5419 165.58 24.5474 163.694C16.5456 148.517 11.0025 131.923 10.7687 122.445C10.7041 119.834 11.0471 116.508 11.5647 114.729L12.0561 113.039L11.1626 113.13C10.6711 113.179 8.20908 113.398 5.69138 113.616C-0.681936 114.167 -8.36416 115.217 -16.8726 116.7C-27.055 118.474 -26.2418 118.41 -26.5486 117.455C-26.81 116.64 -26.8039 116.636 -24.7665 116.218C-15.7038 114.356 4.84041 111.519 10.3905 111.362L11.4478 111.332L10.9131 107.872C10.0461 102.261 10.7711 96.3879 13.2 89.3455C14.6112 85.2529 18.6493 76.9802 21.531 72.2769C24.0232 68.21 29.3787 60.6092 31.3485 58.3445C32.6324 56.8682 32.848 56.7307 33.418 57.0236C33.988 57.3169 34.0296 57.7463 33.8183 61.1486C33.5093 66.1162 31.8635 76.8502 30.6129 82.0535C27.9156 93.2755 23.2606 103.277 18.0069 109.135L16.3269 111.009L20.0704 110.947C22.1294 110.913 25.8666 110.944 28.3751 111.015C30.8835 111.087 32.9704 111.134 33.0128 111.121C33.0548 111.107 33.0172 110.531 32.9291 109.84C31.4398 98.1629 39.7828 82.3843 55.4432 67.2599C58.8351 63.984 59.1288 63.7858 59.8805 64.2648C60.2585 64.506 60.1464 65.4342 59.3873 68.3454C56.949 77.6971 53.3407 87.2487 49.2818 95.0968C46.0592 101.328 43.1739 105.497 39.6892 108.96L37.1265 111.506L39.7313 111.806C41.1638 111.971 43.7113 112.336 45.393 112.616L48.45 113.127L50.2005 109.672C51.1629 107.772 52.6238 105.39 53.4467 104.379C57.1188 99.867 63.3387 94.7028 70.137 90.5224C75.1543 87.4366 82.2204 83.7744 85.0372 82.7994C87.2096 82.0476 87.4194 82.0322 87.6053 82.6112C87.849 83.3705 84.3158 88.1459 79.301 93.8353C70.8431 103.432 62.3939 110.329 55.6603 113.135L53.2829 114.126L56.7901 115.026C58.7187 115.52 62.0433 116.533 64.1777 117.276L68.0588 118.627L69.2702 116.764C73.9244 109.608 83.5691 103.416 99.344 97.4571C106.91 94.5986 109.075 94.1021 109.411 95.1483C109.773 96.2773 100.619 104.706 92.861 110.387C86.6238 114.954 82.5305 117.258 77.3521 119.117L72.969 120.69L75.9457 122.163C77.5828 122.972 80.1408 124.39 81.6303 125.314L84.3387 126.992L85.4376 125.402C90.2948 118.376 103.285 113.287 121.236 111.38C124.785 111.002 125.377 111.084 125.329 111.944C125.269 113.014 115.435 119.496 108.008 123.36C102.69 126.127 93.955 128.965 90.267 129.124C88.9066 129.183 87.941 129.349 88.1211 129.494C93.0736 133.482 94.8237 134.859 94.9074 134.832C94.964 134.814 95.7128 134.274 96.5714 133.631C99.3491 131.555 102.34 130.243 107.887 128.669C115.019 126.646 124.703 125.421 132.759 125.524C135.404 125.557 136.308 126.163 135.124 127.108Z" fill="#93C4A0"/>
<path fill-rule="evenodd" clip-rule="evenodd" d="M135.124 127.108C133.967 128.032 125.855 131.843 120.636 133.916C113.187 136.873 106.327 138.481 100.946 138.529L98.8423 138.547L102.714 142.572L106.586 146.598L109.58 146.061C113.794 145.306 117.491 145.335 122.999 146.164C129.787 147.186 138.633 149.794 138.98 150.876C139.248 151.71 138.294 152.047 134.329 152.518C126.146 153.49 116.719 153.198 112.389 151.838C111.823 151.66 111.28 151.54 111.183 151.572C110.657 151.741 113.532 154.375 115.269 155.315C117.825 156.699 118.758 157.431 121.294 160.037C125.06 163.907 129.129 170.1 132.667 177.343C134.642 181.387 134.912 182.441 134.075 182.849C133.324 183.214 129.062 179.703 124.147 174.67C117.93 168.302 114.963 163.998 113.09 158.63C112.182 156.025 111.721 155.117 110.882 154.283L109.821 153.229L110.141 154.87C111.535 162.034 111.845 168.752 111.133 176.369C110.75 180.473 110.351 181.371 109.249 180.607C108.663 180.201 108.254 179.095 106.483 173.128C104.34 165.91 103.671 162.373 103.563 157.679C103.493 154.65 103.9 150.996 104.495 149.321C104.744 148.617 104.9 147.889 104.84 147.704C104.781 147.518 103.267 145.857 101.476 144.012L98.2202 140.657L98.8738 143.407C100.624 150.77 100.562 161.838 98.7045 173.787C98.1688 177.232 97.9817 177.804 97.3523 177.911C96.6791 178.027 96.5517 177.843 95.7119 175.539C93.6359 169.846 91.3965 158.862 90.9746 152.306C90.5641 145.928 91.0223 142.255 92.9673 136.329C93.0788 135.989 92.1919 135.083 90.1146 133.416L87.0998 130.996L87.9343 134.335C89.4695 140.48 89.3765 148.197 87.6413 158.606C85.8842 169.148 84.7132 172.753 83.4084 171.639C83.0323 171.318 81.3164 163.957 80.536 159.318C78.347 146.303 78.7907 136.685 81.8497 130.849C82.4948 129.619 82.9756 128.466 82.9186 128.289C82.7932 127.898 72.5935 122.376 71.1478 121.916L70.1258 121.59L71.3524 125.005C73.7501 131.68 74.393 139.686 73.4785 151.473C73.101 156.338 71.4818 167.285 71.0363 167.984C70.8651 168.253 70.4582 168.458 70.1329 168.44C69.6029 168.41 69.4 167.897 68.1897 163.533C63.7222 147.426 62.8843 131.789 66.0158 122.966L67.0122 120.158L63.5212 118.959C59.8014 117.682 51.6299 115.465 51.5087 115.7C51.4691 115.777 51.9148 116.55 52.4995 117.417C54.0799 119.759 57.487 130.453 58.0921 134.971C58.884 140.879 59.2892 147.88 59.2074 154.239C59.0989 162.68 59.0441 163.149 58.1468 163.303C57.2449 163.457 56.9605 162.906 53.7767 154.834C47.7087 139.452 45.2274 124.434 47.4761 116.702C47.7571 115.736 47.9282 114.916 47.8564 114.879C47.5812 114.738 37.1742 113.291 36.2705 113.269L35.3195 113.245L36.743 115.084C40.8323 120.365 44.1665 130.67 45.7058 142.782C46.8211 151.557 47.2424 164.902 46.4347 165.866C45.6926 166.752 45.194 166.104 42.9931 161.399C33.8184 141.783 29.8866 123.563 32.8115 114.216C32.9987 113.617 33.0856 113.096 33.0041 113.057C32.2511 112.698 15.5983 112.652 15.415 113.009C15.3723 113.092 16.1346 114.232 17.1087 115.542C24.0763 124.909 28.1403 139.209 29.1506 157.914C29.5107 164.584 29.4507 169.107 28.997 169.472C28.3848 169.964 27.5674 169.477 26.9301 168.24C26.6141 167.626 25.5419 165.58 24.5474 163.694C16.5456 148.517 11.0025 131.923 10.7687 122.445C10.7041 119.834 11.0471 116.508 11.5647 114.729L12.0561 113.039L11.1626 113.13C10.6711 113.179 8.20908 113.398 5.69138 113.616C-0.681936 114.167 -8.36416 115.217 -16.8726 116.7C-27.055 118.474 -26.2418 118.41 -26.5486 117.455C-26.81 116.64 -26.8039 116.636 -24.7665 116.218C-15.7038 114.356 4.84041 111.519 10.3905 111.362L11.4478 111.332L10.9131 107.872C10.0461 102.261 10.7711 96.3879 13.2 89.3455C14.6112 85.2529 18.6493 76.9802 21.531 72.2769C24.0232 68.21 29.3787 60.6092 31.3485 58.3445C32.6324 56.8682 32.848 56.7307 33.418 57.0236C33.988 57.3169 34.0296 57.7463 33.8183 61.1486C33.5093 66.1162 31.8635 76.8502 30.6129 82.0535C27.9156 93.2755 23.2606 103.277 18.0069 109.135L16.3269 111.009L20.0704 110.947C22.1294 110.913 25.8666 110.944 28.3751 111.015C30.8835 111.087 32.9704 111.134 33.0128 111.121C33.0548 111.107 33.0172 110.531 32.9291 109.84C31.4398 98.1629 39.7828 82.3843 55.4432 67.2599C58.8351 63.984 59.1288 63.7858 59.8805 64.2648C60.2585 64.506 60.1464 65.4342 59.3873 68.3454C56.949 77.6971 53.3407 87.2487 49.2818 95.0968C46.0592 101.328 43.1739 105.497 39.6892 108.96L37.1265 111.506L39.7313 111.806C41.1638 111.971 43.7113 112.336 45.393 112.616L48.45 113.127L50.2005 109.672C51.1629 107.772 52.6238 105.39 53.4467 104.379C57.1188 99.867 63.3387 94.7028 70.137 90.5224C75.1543 87.4366 82.2204 83.7744 85.0372 82.7994C87.2096 82.0476 87.4194 82.0322 87.6053 82.6112C87.849 83.3705 84.3158 88.1459 79.301 93.8353C70.8431 103.432 62.3939 110.329 55.6603 113.135L53.2829 114.126L56.7901 115.026C58.7187 115.52 62.0433 116.533 64.1777 117.276L68.0588 118.627L69.2702 116.764C73.9244 109.608 83.5691 103.416 99.344 97.4571C106.91 94.5986 109.075 94.1021 109.411 95.1483C109.773 96.2773 100.619 104.706 92.861 110.387C86.6238 114.954 82.5305 117.258 77.3521 119.117L72.969 120.69L75.9457 122.163C77.5828 122.972 80.1408 124.39 81.6303 125.314L84.3387 126.992L85.4376 125.402C90.2948 118.376 103.285 113.287 121.236 111.38C124.785 111.002 125.377 111.084 125.329 111.944C125.269 113.014 115.435 119.496 108.008 123.36C102.69 126.127 93.955 128.965 90.267 129.124C88.9066 129.183 87.941 129.349 88.1211 129.494C93.0736 133.482 94.8237 134.859 94.9074 134.832C94.964 134.814 95.7128 134.274 96.5714 133.631C99.3491 131.555 102.34 130.243 107.887 128.669C115.019 126.646 124.703 125.421 132.759 125.524C135.404 125.557 136.308 126.163 135.124 127.108Z" fill="#4CD169"/>
</svg>
