<svg width="137" height="95" viewBox="0 0 137 95" fill="none" xmlns="http://www.w3.org/2000/svg">
<path d="M85.763 38.1399C85.763 47.5921 78.1004 55.2547 68.6481 55.2547C59.1958 55.2547 51.5332 47.5921 51.5332 38.1399C51.5332 28.6877 59.1958 21.0251 68.6481 21.0251C78.1004 21.0251 85.763 28.6877 85.763 38.1399Z" fill="#3BEE4C"/>
<path d="M85.7624 46.2732C80.1657 46.2732 75.1323 45.2954 71.5244 43.7424C69.7192 42.9653 68.3031 42.0582 67.3485 41.0866C66.3969 40.1182 65.9368 39.1233 65.9368 38.1399C65.9368 37.1565 66.3969 36.1616 67.3485 35.1932C68.3031 34.2216 69.7192 33.3145 71.5244 32.5374C75.1323 30.9844 80.1657 30.0066 85.7624 30.0066C91.255 30.0066 96.2601 32.1503 99.9189 34.326C101.743 35.411 103.22 36.4962 104.239 37.3089C104.65 37.6366 104.986 37.9196 105.24 38.1399C104.986 38.3602 104.65 38.6432 104.239 38.9709C103.22 39.7836 101.743 40.8688 99.9189 41.9538C96.2601 44.1295 91.255 46.2732 85.7624 46.2732Z" fill="#3BEE4C" stroke="#006322" stroke-width="1.40625"/>
<path d="M74.9982 55.9929C71.0408 52.0355 68.1731 47.7849 66.72 44.1356C65.993 42.3097 65.6332 40.6669 65.6451 39.3049C65.657 37.9472 66.0352 36.9184 66.7306 36.2231C67.426 35.5277 68.4548 35.1495 69.8125 35.1376C71.1745 35.1256 72.8173 35.4855 74.6432 36.2125C78.2925 37.6655 82.5431 40.5332 86.5005 44.4906C90.3844 48.3745 92.4077 53.4294 93.4564 57.5551C93.9794 59.6124 94.2562 61.4239 94.4022 62.7193C94.461 63.2415 94.4985 63.6792 94.5223 64.0145C94.187 63.9908 93.7493 63.9533 93.227 63.8944C91.9316 63.7485 90.1201 63.4716 88.0627 62.9487C83.937 61.9 78.8821 59.8767 74.9982 55.9929Z" fill="#3BEE4C" stroke="#006322" stroke-width="1.40625"/>
<path d="M60.4474 55.223C60.469 49.6265 61.4662 44.5969 63.0332 40.9951C63.8172 39.1929 64.7298 37.7803 65.705 36.8294C66.6772 35.8816 67.6738 35.4254 68.6572 35.4292C69.6406 35.433 70.6338 35.8968 71.5985 36.8522C72.5664 37.8106 73.4681 39.2302 74.2381 41.0383C75.7772 44.6522 76.7356 49.6893 76.714 55.2858C76.6928 60.7784 74.5298 65.7751 72.3399 69.4255C71.2479 71.2458 70.1571 72.7183 69.3403 73.7344C69.0111 74.144 68.7268 74.4789 68.5055 74.732C68.2862 74.4772 68.0045 74.1401 67.6784 73.728C66.8696 72.7056 65.7901 71.2248 64.7122 69.3961C62.5506 65.7289 60.4262 60.7156 60.4474 55.223Z" fill="#3BEE4C" stroke="#006322" stroke-width="1.40625"/>
<path d="M50.769 44.423C54.7408 40.48 59.0017 37.6278 62.6564 36.188C64.4849 35.4677 66.129 35.1138 67.491 35.1307C68.8486 35.1475 69.876 35.5295 70.5688 36.2273C71.2617 36.9252 71.6362 37.9554 71.6431 39.3131C71.6501 40.6752 71.2843 42.3166 70.5507 44.1398C69.0844 47.7839 66.2012 52.024 62.2295 55.967C58.3315 59.8367 53.2692 61.8416 49.1397 62.8753C47.0805 63.3907 45.268 63.661 43.9721 63.8023C43.4496 63.8592 43.0118 63.8951 42.6764 63.9177C42.7014 63.5824 42.7404 63.1449 42.8012 62.6228C42.9518 61.328 43.2353 59.5175 43.7657 57.4621C44.8294 53.3403 46.8711 48.2927 50.769 44.423Z" fill="#3BEE4C" stroke="#006322" stroke-width="1.40625"/>
<path d="M51.5966 29.8719C57.193 29.9151 62.2187 30.9317 65.8146 32.5125C67.6137 33.3035 69.0227 34.2216 69.9699 35.2004C70.914 36.1762 71.3663 37.1746 71.3587 38.158C71.3511 39.1413 70.8834 40.1327 69.9244 41.0937C68.9622 42.0579 67.5392 42.9541 65.728 43.7172C62.1082 45.2423 57.0674 46.1812 51.471 46.138C45.9785 46.0956 40.9901 43.9133 37.3482 41.7094C35.5321 40.6104 34.0638 39.5138 33.0509 38.6932C32.6425 38.3624 32.3087 38.0768 32.0565 37.8546C32.3121 37.6362 32.6503 37.3558 33.0637 37.0313C34.0891 36.2265 35.5742 35.1527 37.4071 34.0819C41.0826 31.9344 46.1041 29.8295 51.5966 29.8719Z" fill="#3BEE4C" stroke="#006322" stroke-width="1.40625"/>
<path d="M62.4223 20.2452C66.3508 24.2312 69.1876 28.5025 70.614 32.1623C71.3278 33.9934 71.6757 35.6387 71.6538 37.0006C71.6321 38.3582 71.2464 39.3842 70.546 40.0745C69.8456 40.7648 68.8141 41.1355 67.4563 41.1376C66.0942 41.1396 64.4541 40.7678 62.6335 40.0276C58.9948 38.5481 54.7652 35.6496 50.8367 31.6635C46.9811 27.7516 44.9946 22.6821 43.9759 18.5489C43.4679 16.4878 43.2042 14.6743 43.0677 13.3779C43.0126 12.8552 42.9783 12.4173 42.957 12.0818C43.2921 12.108 43.7295 12.1487 44.2514 12.2113C45.5457 12.3667 47.3551 12.6567 49.4086 13.1946C53.5266 14.2732 58.5667 16.3332 62.4223 20.2452Z" fill="#3BEE4C" stroke="#006322" stroke-width="1.40625"/>
<path d="M76.983 21.1206C76.9182 26.7168 75.8821 31.7385 74.2874 35.3282C73.4895 37.1243 72.566 38.5297 71.5835 39.4731C70.6041 40.4134 69.6039 40.8619 68.6206 40.8505C67.6372 40.8391 66.6477 40.3676 65.6903 39.4048C64.7299 38.439 63.8392 37.0125 63.0831 35.1985C61.572 31.5728 60.6525 26.5285 60.7173 20.9322C60.7809 15.44 62.9824 10.4601 65.2004 6.82675C66.3064 5.01493 67.4087 3.55087 68.2332 2.54117C68.5656 2.13408 68.8525 1.80137 69.0757 1.55003C69.293 1.80647 69.5721 2.14574 69.895 2.56041C70.6959 3.58894 71.764 5.07813 72.8277 6.91508C74.961 10.5989 77.0466 15.6284 76.983 21.1206Z" fill="#3BEE4C" stroke="#006322" stroke-width="1.40625"/>
<path d="M86.5619 31.9775C82.5616 35.8915 78.28 38.7127 74.615 40.1259C72.7813 40.8329 71.1347 41.1749 69.7729 41.1481C68.4154 41.1214 67.3908 40.7319 66.703 40.0291C66.0153 39.3262 65.6483 38.2933 65.6512 36.9356C65.6541 35.5735 66.0318 33.9347 66.7787 32.1169C68.2714 28.4836 71.1853 24.2646 75.1856 20.3506C79.1116 16.5093 84.1883 14.5412 88.3252 13.5375C90.3881 13.037 92.2025 12.7799 93.4995 12.6481C94.0223 12.595 94.4604 12.5622 94.796 12.5421C94.7685 12.8772 94.7263 13.3144 94.6618 13.836C94.5017 15.1297 94.2051 16.9381 93.6598 18.9896C92.5661 23.1036 90.4879 28.1362 86.5619 31.9775Z" fill="#3BEE4C" stroke="#006322" stroke-width="1.40625"/>
<path d="M43.1715 38.6076C43.1223 38.5523 43.0764 38.5005 43.0339 38.4522C43.0764 38.404 43.1223 38.3522 43.1715 38.2969C43.518 37.9083 44.0312 37.3505 44.6935 36.68C46.0188 35.3383 47.9368 33.5492 50.3052 31.7612C55.0582 28.1729 61.5438 24.6509 68.6499 24.6509C75.756 24.6509 82.2416 28.1729 86.9946 31.7612C89.363 33.5492 91.281 35.3383 92.6063 36.68C93.2686 37.3505 93.7818 37.9083 94.1283 38.2969C94.1775 38.3522 94.2234 38.404 94.2659 38.4522C94.2234 38.5005 94.1775 38.5523 94.1283 38.6076C93.7818 38.9962 93.2686 39.554 92.6063 40.2245C91.281 41.5662 89.363 43.3553 86.9946 45.1433C82.2416 48.7315 75.756 52.2536 68.6499 52.2536C61.5438 52.2536 55.0582 48.7315 50.3052 45.1433C47.9368 43.3553 46.0188 41.5662 44.6935 40.2245C44.0312 39.554 43.518 38.9962 43.1715 38.6076Z" fill="white" stroke="#006322" stroke-width="1.40625"/>
<path d="M77.8829 38.4524C77.8829 43.5518 73.749 47.6857 68.6495 47.6857C63.55 47.6857 59.416 43.5518 59.416 38.4524C59.416 33.3529 63.55 29.219 68.6495 29.219C73.749 29.219 77.8829 33.3529 77.8829 38.4524Z" fill="white" stroke="#006322" stroke-width="2.25001"/>
<path d="M71.1111 41.4819C71.1111 42.5314 70.7932 43.4541 70.3131 44.0983C69.8331 44.7425 69.2249 45.0731 68.6141 45.0731C68.0033 45.0731 67.3952 44.7425 66.9151 44.0983C66.4351 43.4541 66.1172 42.5314 66.1172 41.4819C66.1172 40.4324 66.4351 39.5096 66.9151 38.8654C67.3952 38.2213 68.0033 37.8906 68.6141 37.8906C69.2249 37.8906 69.8331 38.2213 70.3131 38.8654C70.7932 39.5096 71.1111 40.4324 71.1111 41.4819Z" fill="white" stroke="#006322" stroke-width="1.40625"/>
<path d="M7.85809 93.5049C8.03943 93.6329 8.33276 93.7609 8.73809 93.8889C9.15409 94.0062 9.61809 94.0649 10.1301 94.0649C10.6421 94.0649 11.0688 93.9102 11.4101 93.6009C11.7514 93.2916 11.9221 92.8756 11.9221 92.3529C11.9221 91.5422 11.4634 90.8809 10.5461 90.3689C10.3114 90.2516 9.94876 90.0916 9.45809 89.8889C8.96743 89.6756 8.62076 89.5209 8.41809 89.4249C8.21543 89.3182 7.97543 89.1742 7.69809 88.9929C7.43143 88.8009 7.22343 88.6089 7.07409 88.4169C6.70076 87.9582 6.51409 87.3982 6.51409 86.7369C6.51409 85.7662 6.87143 84.9982 7.58609 84.4329C8.31143 83.8676 9.25009 83.5849 10.4021 83.5849C11.2768 83.5849 12.0981 83.7289 12.8661 84.0169C12.8981 84.2729 12.9141 84.6142 12.9141 85.0409C12.9141 85.4569 12.8554 86.0169 12.7381 86.7209L11.8101 86.8329C11.6928 85.6276 11.5488 84.9556 11.3781 84.8169C11.1221 84.5929 10.6528 84.4809 9.97009 84.4809C9.29809 84.4809 8.77543 84.6196 8.40209 84.8969C8.02876 85.1636 7.84209 85.5582 7.84209 86.0809C7.84209 86.3796 7.90076 86.6462 8.01809 86.8809C8.13543 87.1156 8.34876 87.3342 8.65809 87.5369C8.96743 87.7396 9.21276 87.8836 9.39409 87.9689C9.66076 88.1076 10.0341 88.2782 10.5141 88.4809C10.9941 88.6836 11.3674 88.8596 11.6341 89.0089C11.9008 89.1582 12.1888 89.3556 12.4981 89.6009C13.0954 90.1022 13.3941 90.8276 13.3941 91.7769C13.3941 92.7262 13.0528 93.4942 12.3701 94.0809C11.6981 94.6676 10.7754 94.9609 9.60209 94.9609C8.97276 94.9609 8.34343 94.8862 7.71409 94.7369C7.09543 94.5769 6.64209 94.4222 6.35409 94.2729C6.32209 94.1449 6.30609 93.8409 6.30609 93.3609C6.30609 92.8809 6.37009 92.2996 6.49809 91.6169L7.41009 91.5689C7.49543 92.3369 7.56476 92.8329 7.61809 93.0569C7.68209 93.2809 7.76209 93.4302 7.85809 93.5049ZM14.9211 94.8169L14.8251 94.1929C15.3904 94.0969 15.7318 93.9902 15.8491 93.8729C15.9771 93.7556 16.0411 93.5316 16.0411 93.2009V85.3449C16.0411 85.0142 15.9771 84.7902 15.8491 84.6729C15.7318 84.5556 15.3904 84.4489 14.8251 84.3529L14.9211 83.7289H18.8411L18.9051 84.3529L17.9131 84.5449C17.6998 84.5876 17.5931 84.7262 17.5931 84.9609V93.5849C17.5931 93.8196 17.6998 93.9582 17.9131 94.0009L18.9051 94.1929L18.8411 94.8169H14.9211ZM28.9037 94.2249C28.5517 94.4062 28.0397 94.5769 27.3677 94.7369C26.7064 94.8862 26.0291 94.9609 25.3357 94.9609C23.5971 94.9609 22.2851 94.4489 21.3997 93.4249C20.5144 92.4009 20.0717 91.0996 20.0717 89.5209C20.0717 88.3049 20.3224 87.2222 20.8237 86.2729C21.4104 85.1529 22.2904 84.3742 23.4637 83.9369C24.1144 83.7022 24.7917 83.5849 25.4957 83.5849C26.1997 83.5849 26.8771 83.6382 27.5277 83.7449C28.1784 83.8516 28.6051 83.9476 28.8077 84.0329C28.8717 84.4276 28.9037 84.8436 28.9037 85.2809C28.9037 85.7076 28.8931 86.1876 28.8717 86.7209L27.9597 86.8489C27.7251 85.6116 27.5171 84.9289 27.3357 84.8009C27.2397 84.7262 26.9891 84.6462 26.5837 84.5609C26.1891 84.4756 25.7944 84.4329 25.3997 84.4329C24.2264 84.4329 23.3411 84.8649 22.7437 85.7289C22.1464 86.5929 21.8477 87.7289 21.8477 89.1369C21.8477 90.8009 22.2264 92.0382 22.9837 92.8489C23.7411 93.6596 24.6797 94.0649 25.7997 94.0649C26.3864 94.0649 26.9037 93.9796 27.3517 93.8089V91.5849C27.3517 91.2542 27.2877 91.0302 27.1597 90.9129C27.0424 90.7956 26.7011 90.6889 26.1357 90.5929L26.2317 89.9689H29.9757L30.0397 90.5929L29.2237 90.7849C29.0104 90.8276 28.9037 90.9662 28.9037 91.2009V94.2249ZM31.2023 94.8169L31.1063 94.1929C31.6717 94.0969 32.013 93.9902 32.1303 93.8729C32.2583 93.7556 32.3223 93.5316 32.3223 93.2009V85.3449C32.3223 85.0142 32.2583 84.7902 32.1303 84.6729C32.013 84.5556 31.6717 84.4489 31.1063 84.3529L31.2023 83.7289H32.4343H33.3783H34.2583L39.7303 91.7929H39.8423V85.6649C39.8423 85.1849 39.7517 84.8649 39.5703 84.7049C39.3997 84.5449 38.9783 84.4276 38.3063 84.3529L38.4023 83.7289H42.1623L42.2263 84.3529L41.2343 84.5449C41.021 84.5876 40.9143 84.7262 40.9143 84.9609V94.8169H39.9703H39.9223L33.5223 85.3449H33.3943V93.2169C33.3943 93.4836 33.4423 93.6809 33.5383 93.8089C33.645 93.9369 33.8317 94.0169 34.0983 94.0489L35.2183 94.1929L35.1543 94.8169H31.2023ZM44.9206 93.5049C45.1019 93.6329 45.3953 93.7609 45.8006 93.8889C46.2166 94.0062 46.6806 94.0649 47.1926 94.0649C47.7046 94.0649 48.1313 93.9102 48.4726 93.6009C48.8139 93.2916 48.9846 92.8756 48.9846 92.3529C48.9846 91.5422 48.5259 90.8809 47.6086 90.3689C47.3739 90.2516 47.0113 90.0916 46.5206 89.8889C46.0299 89.6756 45.6833 89.5209 45.4806 89.4249C45.2779 89.3182 45.0379 89.1742 44.7606 88.9929C44.4939 88.8009 44.2859 88.6089 44.1366 88.4169C43.7633 87.9582 43.5766 87.3982 43.5766 86.7369C43.5766 85.7662 43.9339 84.9982 44.6486 84.4329C45.3739 83.8676 46.3126 83.5849 47.4646 83.5849C48.3393 83.5849 49.1606 83.7289 49.9286 84.0169C49.9606 84.2729 49.9766 84.6142 49.9766 85.0409C49.9766 85.4569 49.9179 86.0169 49.8006 86.7209L48.8726 86.8329C48.7553 85.6276 48.6113 84.9556 48.4406 84.8169C48.1846 84.5929 47.7153 84.4809 47.0326 84.4809C46.3606 84.4809 45.8379 84.6196 45.4646 84.8969C45.0913 85.1636 44.9046 85.5582 44.9046 86.0809C44.9046 86.3796 44.9633 86.6462 45.0806 86.8809C45.1979 87.1156 45.4113 87.3342 45.7206 87.5369C46.0299 87.7396 46.2753 87.8836 46.4566 87.9689C46.7233 88.1076 47.0966 88.2782 47.5766 88.4809C48.0566 88.6836 48.4299 88.8596 48.6966 89.0089C48.9633 89.1582 49.2513 89.3556 49.5606 89.6009C50.1579 90.1022 50.4566 90.8276 50.4566 91.7769C50.4566 92.7262 50.1153 93.4942 49.4326 94.0809C48.7606 94.6676 47.8379 94.9609 46.6646 94.9609C46.0353 94.9609 45.4059 94.8862 44.7766 94.7369C44.1579 94.5769 43.7046 94.4222 43.4166 94.2729C43.3846 94.1449 43.3686 93.8409 43.3686 93.3609C43.3686 92.8809 43.4326 92.2996 43.5606 91.6169L44.4726 91.5689C44.5579 92.3369 44.6273 92.8329 44.6806 93.0569C44.7446 93.2809 44.8246 93.4302 44.9206 93.5049ZM60.7055 94.9609C59.0948 94.9609 57.8521 94.4649 56.9775 93.4729C56.1028 92.4702 55.6655 91.1049 55.6655 89.3769C55.6655 87.6382 56.1295 86.2409 57.0575 85.1849C57.9855 84.1182 59.2548 83.5849 60.8655 83.5849C62.4868 83.5849 63.7348 84.0756 64.6095 85.0569C65.4841 86.0276 65.9215 87.3822 65.9215 89.1209C65.9215 90.8489 65.4575 92.2569 64.5295 93.3449C63.6015 94.4222 62.3268 94.9609 60.7055 94.9609ZM60.9295 94.1129C61.5055 94.1129 62.0068 93.9796 62.4335 93.7129C62.8708 93.4462 63.2121 93.0782 63.4575 92.6089C63.9161 91.7022 64.1455 90.5609 64.1455 89.1849C64.1455 87.8089 63.8415 86.6729 63.2335 85.7769C62.6361 84.8809 61.7775 84.4329 60.6575 84.4329C60.0815 84.4329 59.5748 84.5662 59.1375 84.8329C58.7108 85.0889 58.3801 85.4462 58.1455 85.9049C57.6761 86.7902 57.4415 87.9209 57.4415 89.2969C57.4415 90.6622 57.7401 91.8089 58.3375 92.7369C58.9348 93.6542 59.7988 94.1129 60.9295 94.1129ZM67.2805 94.8169L67.1845 94.1929C67.7498 94.0969 68.0911 93.9902 68.2085 93.8729C68.3365 93.7556 68.4005 93.5316 68.4005 93.2009V85.3449C68.4005 85.0142 68.3365 84.7902 68.2085 84.6729C68.0911 84.5556 67.7498 84.4489 67.1845 84.3529L67.2805 83.7289H74.7365C74.8005 84.1236 74.8325 84.5182 74.8325 84.9129C74.8325 85.2969 74.8218 85.7342 74.8005 86.2249L73.8885 86.3369C73.7391 85.6009 73.6325 85.1422 73.5685 84.9609C73.5045 84.7689 73.4298 84.6676 73.3445 84.6569C73.0885 84.6249 72.7631 84.6036 72.3685 84.5929L69.9525 84.5449V88.9929H72.4165C72.6831 88.9929 72.9178 88.6142 73.1205 87.8569L73.6165 87.9049C73.6165 88.6836 73.6271 89.2276 73.6485 89.5369C73.6805 89.8462 73.6965 90.0329 73.6965 90.0969C73.7071 90.1609 73.7285 90.3156 73.7605 90.5609C73.8031 90.8062 73.8298 90.9769 73.8405 91.0729L73.2645 91.1689C73.0085 90.2836 72.7631 89.8409 72.5285 89.8409H69.9525V93.5849C69.9525 93.8409 70.0591 93.9796 70.2725 94.0009L71.8885 94.1929L71.8245 94.8169H67.2805ZM88.5287 94.2249C88.1767 94.4062 87.6647 94.5769 86.9927 94.7369C86.3314 94.8862 85.6541 94.9609 84.9607 94.9609C83.2221 94.9609 81.9101 94.4489 81.0247 93.4249C80.1394 92.4009 79.6967 91.0996 79.6967 89.5209C79.6967 88.3049 79.9474 87.2222 80.4487 86.2729C81.0354 85.1529 81.9154 84.3742 83.0887 83.9369C83.7394 83.7022 84.4167 83.5849 85.1207 83.5849C85.8247 83.5849 86.5021 83.6382 87.1527 83.7449C87.8034 83.8516 88.2301 83.9476 88.4327 84.0329C88.4967 84.4276 88.5287 84.8436 88.5287 85.2809C88.5287 85.7076 88.5181 86.1876 88.4967 86.7209L87.5847 86.8489C87.3501 85.6116 87.1421 84.9289 86.9607 84.8009C86.8647 84.7262 86.6141 84.6462 86.2087 84.5609C85.8141 84.4756 85.4194 84.4329 85.0247 84.4329C83.8514 84.4329 82.9661 84.8649 82.3687 85.7289C81.7714 86.5929 81.4727 87.7289 81.4727 89.1369C81.4727 90.8009 81.8514 92.0382 82.6087 92.8489C83.3661 93.6596 84.3047 94.0649 85.4247 94.0649C86.0114 94.0649 86.5287 93.9796 86.9767 93.8089V91.5849C86.9767 91.2542 86.9127 91.0302 86.7847 90.9129C86.6674 90.7956 86.3261 90.6889 85.7607 90.5929L85.8567 89.9689H89.6007L89.6647 90.5929L88.8487 90.7849C88.6354 90.8276 88.5287 90.9662 88.5287 91.2009V94.2249ZM90.8273 94.8169L90.7313 94.1929C91.2967 94.0969 91.638 93.9902 91.7553 93.8729C91.8833 93.7556 91.9473 93.5316 91.9473 93.2009V85.3449C91.9473 85.0142 91.8833 84.7902 91.7553 84.6729C91.638 84.5556 91.2967 84.4489 90.7313 84.3529L90.8273 83.7289H95.2753C96.4167 83.7289 97.2647 83.9636 97.8193 84.4329C98.374 84.9022 98.6513 85.5369 98.6513 86.3369C98.6513 87.1369 98.4327 87.8356 97.9953 88.4329C97.558 89.0196 96.9447 89.4462 96.1553 89.7129V89.7929C96.262 89.8249 96.3793 89.9422 96.5073 90.1449L98.7633 93.5369C98.9233 93.7716 99.078 93.9316 99.2273 94.0169C99.3873 94.1022 99.67 94.1609 100.075 94.1929L99.9793 94.8169H97.7073L94.5393 89.9529H93.4993V93.5849C93.4993 93.8196 93.606 93.9582 93.8193 94.0009L94.6993 94.1929L94.6353 94.8169H90.8273ZM93.4993 89.1369H94.3793C95.222 89.1369 95.8567 88.9556 96.2833 88.5929C96.7207 88.2196 96.9393 87.5422 96.9393 86.5609C96.9393 85.2382 96.2193 84.5769 94.7793 84.5769H93.8193C93.606 84.5769 93.4993 84.7049 93.4993 84.9609V89.1369ZM100.937 94.8169L100.841 94.1929C101.406 94.0969 101.747 93.9902 101.865 93.8729C101.993 93.7556 102.057 93.5316 102.057 93.2009V85.3449C102.057 85.0142 101.993 84.7902 101.865 84.6729C101.747 84.5556 101.406 84.4489 100.841 84.3529L100.937 83.7289H108.393C108.457 84.1236 108.489 84.5182 108.489 84.9129C108.489 85.2969 108.478 85.7342 108.457 86.2249L107.545 86.3369C107.395 85.6009 107.289 85.1422 107.225 84.9609C107.161 84.7689 107.086 84.6676 107.001 84.6569C106.745 84.6249 106.419 84.6036 106.025 84.5929L103.609 84.5449V88.8489H106.009C106.147 88.8489 106.318 88.4702 106.521 87.7129L107.017 87.7609C107.017 88.5396 107.027 89.0836 107.049 89.3929C107.081 89.7022 107.097 89.8889 107.097 89.9529C107.107 90.0169 107.129 90.1716 107.161 90.4169C107.203 90.6622 107.23 90.8329 107.241 90.9289L106.665 91.0249C106.494 90.4169 106.377 90.0436 106.313 89.9049C106.259 89.7662 106.195 89.6969 106.121 89.6969H103.609V94.0009L105.033 93.9849C106.238 93.9849 106.974 93.9209 107.241 93.7929C107.273 93.7716 107.294 93.7609 107.305 93.7609C107.486 93.7076 107.721 93.0782 108.009 91.8729L108.889 91.9529C108.899 92.1342 108.905 92.4596 108.905 92.9289C108.905 93.3876 108.846 94.0169 108.729 94.8169H100.937ZM110.405 94.8169L110.309 94.1929C110.875 94.0969 111.216 93.9902 111.333 93.8729C111.461 93.7556 111.525 93.5316 111.525 93.2009V85.3449C111.525 85.0142 111.461 84.7902 111.333 84.6729C111.216 84.5556 110.875 84.4489 110.309 84.3529L110.405 83.7289H117.861C117.925 84.1236 117.957 84.5182 117.957 84.9129C117.957 85.2969 117.947 85.7342 117.925 86.2249L117.013 86.3369C116.864 85.6009 116.757 85.1422 116.693 84.9609C116.629 84.7689 116.555 84.6676 116.469 84.6569C116.213 84.6249 115.888 84.6036 115.493 84.5929L113.077 84.5449V88.8489H115.477C115.616 88.8489 115.787 88.4702 115.989 87.7129L116.485 87.7609C116.485 88.5396 116.496 89.0836 116.517 89.3929C116.549 89.7022 116.565 89.8889 116.565 89.9529C116.576 90.0169 116.597 90.1716 116.629 90.4169C116.672 90.6622 116.699 90.8329 116.709 90.9289L116.133 91.0249C115.963 90.4169 115.845 90.0436 115.781 89.9049C115.728 89.7662 115.664 89.6969 115.589 89.6969H113.077V94.0009L114.501 93.9849C115.707 93.9849 116.443 93.9209 116.709 93.7929C116.741 93.7716 116.763 93.7609 116.773 93.7609C116.955 93.7076 117.189 93.0782 117.477 91.8729L118.357 91.9529C118.368 92.1342 118.373 92.4596 118.373 92.9289C118.373 93.3876 118.315 94.0169 118.197 94.8169H110.405ZM119.874 94.8169L119.778 94.1929C120.344 94.0969 120.685 93.9902 120.802 93.8729C120.93 93.7556 120.994 93.5316 120.994 93.2009V85.3449C120.994 85.0142 120.93 84.7902 120.802 84.6729C120.685 84.5556 120.344 84.4489 119.778 84.3529L119.874 83.7289H121.106H122.05H122.93L128.402 91.7929H128.514V85.6649C128.514 85.1849 128.424 84.8649 128.242 84.7049C128.072 84.5449 127.65 84.4276 126.978 84.3529L127.074 83.7289H130.834L130.898 84.3529L129.906 84.5449C129.693 84.5876 129.586 84.7262 129.586 84.9609V94.8169H128.642H128.594L122.194 85.3449H122.066V93.2169C122.066 93.4836 122.114 93.6809 122.21 93.8089C122.317 93.9369 122.504 94.0169 122.77 94.0489L123.89 94.1929L123.826 94.8169H119.874Z" fill="#16592D"/>
</svg>
