<svg width="132" height="109" viewBox="0 0 132 109" fill="none" xmlns="http://www.w3.org/2000/svg">
<g filter="url(#filter0_i_221_6900)">
<g clip-path="url(#clip0_221_6900)">
<rect width="118.123" height="56.531" rx="28.2655" transform="matrix(0.866022 -0.500007 0.499993 0.866029 0.519531 59.9528)" fill="white"/>
<path d="M36.9373 37.1397L97.9395 -4.89129L137.528 63.6796L69.4486 95.4275C69.4486 95.4275 67.8776 76.7262 59.4386 61.5509C51.3199 46.9516 36.9373 37.1397 36.9373 37.1397Z" fill="#FF0F0F"/>
<ellipse cx="32.8913" cy="72.6192" rx="40.2859" ry="40.2866" fill="white"/>
<path d="M38.3643 85.6068L26.1888 64.5179L42.5156 55.0915C44.7593 53.7961 46.6562 53.3056 48.2063 53.62C49.7426 53.9106 50.8759 54.6884 51.6063 55.9535L52.2264 57.0277C52.7914 58.0063 53.0452 58.9419 52.9876 59.8345C52.9401 60.6894 52.7535 61.3859 52.4277 61.9241C53.6709 61.6519 54.8439 61.7544 55.9469 62.2315C57.036 62.6847 57.9665 63.5797 58.7382 64.9164L59.1103 65.5609C59.5237 66.277 59.8536 67.0413 60.1 67.8539C60.3463 68.6665 60.403 69.5089 60.2702 70.3813C60.1474 71.216 59.7597 72.0604 59.1071 72.9146C58.4784 73.755 57.4838 74.568 56.1232 75.3535L38.3643 85.6068ZM37.8631 68.6145L45.0239 64.4801C45.6445 64.1218 45.9984 63.7425 46.0855 63.3421C46.1726 62.9417 46.0852 62.5148 45.8234 62.0612L45.6167 61.7032C45.3273 61.2019 45.0012 60.9128 44.6385 60.8358C44.2758 60.7587 43.6767 60.9614 42.8413 61.4438L36.0027 65.3921L37.8631 68.6145ZM42.5141 76.6705L51.143 71.6886C51.7636 71.3303 52.1312 70.9748 52.2459 70.6222C52.3468 70.2457 52.2525 69.8068 51.9631 69.3055L51.591 68.661C51.3292 68.2075 50.9742 67.951 50.5261 67.8914C50.0642 67.808 49.4513 67.9868 48.6875 68.4278L40.4883 73.1617L42.5141 76.6705Z" fill="#FF0F0F"/>
<path d="M83.1308 59.7604L70.976 38.7073L93.9623 25.4359L96.7736 30.3053L80.7691 39.5457L82.4849 42.5174L94.3361 35.675L97.2094 40.6519L85.3582 47.4943L87.2806 50.8241L102.712 41.9145L107.465 45.1856C107.52 45.281 107.253 45.5626 106.664 46.0301C106.061 46.4738 104.971 47.1505 103.396 48.06L83.1308 59.7604Z" fill="white"/>
</g>
<rect x="1.44071" y="0.386036" width="116.014" height="54.4216" rx="27.2108" transform="matrix(0.866022 -0.500007 0.499993 0.866029 0.519539 60.7248)" stroke="#FF1A1A" stroke-width="2.10936"/>
</g>
<defs>
<filter id="filter0_i_221_6900" x="0.519531" y="0.890259" width="130.562" height="108.02" filterUnits="userSpaceOnUse" color-interpolation-filters="sRGB">
<feFlood flood-opacity="0" result="BackgroundImageFix"/>
<feBlend mode="normal" in="SourceGraphic" in2="BackgroundImageFix" result="shape"/>
<feColorMatrix in="SourceAlpha" type="matrix" values="0 0 0 0 0 0 0 0 0 0 0 0 0 0 0 0 0 0 127 0" result="hardAlpha"/>
<feOffset dx="-5.9062" dy="-5.9062"/>
<feComposite in2="hardAlpha" operator="arithmetic" k2="-1" k3="1"/>
<feColorMatrix type="matrix" values="0 0 0 0 1 0 0 0 0 0.0588235 0 0 0 0 0.0588235 0 0 0 0.3 0"/>
<feBlend mode="normal" in2="shape" result="effect1_innerShadow_221_6900"/>
</filter>
<clipPath id="clip0_221_6900">
<rect width="118.123" height="56.531" rx="28.2655" transform="matrix(0.866022 -0.500007 0.499993 0.866029 0.519531 59.9528)" fill="white"/>
</clipPath>
</defs>
</svg>
