<svg width="167" height="95" viewBox="0 0 167 95" fill="none" xmlns="http://www.w3.org/2000/svg">
<g filter="url(#filter0_i_221_4239)">
<g clip-path="url(#clip0_221_4239)">
<rect x="0.347656" y="49.7456" width="59.0625" height="28.2656" rx="14.1328" transform="rotate(-30 0.347656 49.7456)" fill="white"/>
<path d="M18.5585 38.3393L49.0602 17.3238L68.8549 51.6092L34.8145 67.4832C34.8145 67.4832 34.029 58.1326 29.8094 50.5449C25.75 43.2453 18.5585 38.3393 18.5585 38.3393Z" fill="#FF0F0F"/>
<ellipse cx="16.5359" cy="56.0788" rx="20.1433" ry="20.1433" fill="white"/>
<path d="M19.0221 62.1394L12.9342 51.5949L21.0977 46.8818C22.2196 46.234 23.168 45.9888 23.9431 46.146C24.7112 46.2913 25.2779 46.6802 25.6431 47.3128L25.9532 47.8499C26.2357 48.3392 26.3626 48.807 26.3338 49.2533C26.3101 49.6807 26.2167 50.029 26.0538 50.2981C26.6754 50.162 27.262 50.2132 27.8135 50.4518C28.3581 50.6784 28.8233 51.1259 29.2092 51.7943L29.3952 52.1165C29.6019 52.4746 29.7669 52.8567 29.8901 53.263C30.0132 53.6693 30.0416 54.0905 29.9752 54.5267C29.9138 54.9441 29.7199 55.3663 29.3936 55.7934C29.0793 56.2136 28.5819 56.62 27.9017 57.0128L19.0221 62.1394ZM18.7714 53.6433L22.3519 51.5761C22.6622 51.3969 22.8391 51.2073 22.8827 51.0071C22.9263 50.8069 22.8826 50.5934 22.7516 50.3666L22.6483 50.1876C22.5036 49.937 22.3405 49.7924 22.1592 49.7539C21.9778 49.7154 21.6783 49.8167 21.2606 50.0579L17.8412 52.0321L18.7714 53.6433ZM21.097 57.6713L25.4115 55.1803C25.7218 55.0012 25.9056 54.8234 25.963 54.6471C26.0134 54.4589 25.9663 54.2394 25.8216 53.9888L25.6355 53.6666C25.5046 53.4398 25.3271 53.3115 25.103 53.2818C24.8721 53.24 24.5657 53.3294 24.1837 53.5499L20.0841 55.9169L21.097 57.6713Z" fill="#FF0F0F"/>
<path d="M41.4053 49.2162L35.3278 38.6896L46.8211 32.054L48.2268 34.4887L40.2244 39.1088L41.0823 40.5947L47.008 37.1735L48.4447 39.662L42.519 43.0832L43.4803 44.7481L51.1962 40.2933L53.5727 41.9288C53.6002 41.9766 53.4667 42.1173 53.172 42.3511C52.8704 42.573 52.3258 42.9113 51.5381 43.3661L41.4053 49.2162Z" fill="white"/>
</g>
<rect x="1.06802" y="49.9386" width="58.0078" height="27.2109" rx="13.6055" transform="rotate(-30 1.06802 49.9386)" stroke="#FF1A1A" stroke-width="1.05469"/>
</g>
<path d="M71.8501 44.3588C72.2931 44.3588 72.6652 44.3056 72.9664 44.1993C73.2676 44.093 73.5068 43.9512 73.684 43.7741C73.8671 43.5969 73.9971 43.3901 74.0738 43.1539C74.1565 42.9176 74.1979 42.6666 74.1979 42.4008C74.1979 42.1233 74.1536 41.8752 74.065 41.6567C73.9764 41.4322 73.8376 41.2432 73.6486 41.0897C73.4596 40.9302 73.2145 40.8091 72.9133 40.7264C72.618 40.6437 72.2606 40.6024 71.8413 40.6024H69.4404V44.3588H71.8501ZM69.4404 35.2513V38.9546H71.3363C72.1514 38.9546 72.7656 38.8069 73.179 38.5116C73.5984 38.2163 73.8081 37.7467 73.8081 37.1029C73.8081 36.4355 73.6191 35.9601 73.2411 35.6766C72.8631 35.3931 72.2724 35.2513 71.4692 35.2513H69.4404ZM71.4692 33.4086C72.3079 33.4086 73.0255 33.4883 73.622 33.6478C74.2185 33.8073 74.7058 34.0346 75.0838 34.33C75.4677 34.6253 75.7483 34.9826 75.9255 35.4019C76.1026 35.8213 76.1912 36.2938 76.1912 36.8194C76.1912 37.1207 76.1469 37.4101 76.0583 37.6877C75.9697 37.9593 75.831 38.2163 75.6419 38.4584C75.4589 38.6947 75.2226 38.9103 74.9332 39.1052C74.6497 39.3001 74.3101 39.4654 73.9144 39.6013C75.6744 39.997 76.5545 40.9479 76.5545 42.454C76.5545 42.9974 76.4511 43.4994 76.2444 43.9601C76.0377 44.4208 75.7365 44.8195 75.3407 45.1561C74.945 45.4869 74.4577 45.7467 73.8789 45.9357C73.3001 46.1247 72.6386 46.2192 71.8944 46.2192H67.0572V33.4086H71.4692ZM84.7618 44.2968C85.2225 44.2968 85.633 44.22 85.9933 44.0664C86.3595 43.9128 86.6666 43.6973 86.9147 43.4197C87.1627 43.1421 87.3517 42.8054 87.4817 42.4097C87.6175 42.014 87.6854 41.571 87.6854 41.0808V33.4086H90.0686V41.0808C90.0686 41.8427 89.9446 42.5485 89.6965 43.1982C89.4544 43.842 89.1029 44.4001 88.6422 44.8726C88.1875 45.3392 87.6323 45.7054 86.9767 45.9712C86.3211 46.2311 85.5828 46.361 84.7618 46.361C83.935 46.361 83.1937 46.2311 82.5381 45.9712C81.8825 45.7054 81.3244 45.3392 80.8637 44.8726C80.4089 44.4001 80.0575 43.842 79.8095 43.1982C79.5673 42.5485 79.4462 41.8427 79.4462 41.0808V33.4086H81.8294V41.0719C81.8294 41.5622 81.8944 42.0051 82.0243 42.4008C82.1601 42.7966 82.3521 43.1362 82.6002 43.4197C82.8541 43.6973 83.1612 43.9128 83.5215 44.0664C83.8877 44.22 84.3012 44.2968 84.7618 44.2968ZM100.464 35.7386C100.393 35.8626 100.316 35.9542 100.234 36.0132C100.157 36.0664 100.059 36.093 99.9413 36.093C99.8172 36.093 99.6814 36.0487 99.5337 35.9601C99.392 35.8656 99.2207 35.7622 99.0199 35.65C98.8191 35.5378 98.5828 35.4374 98.3111 35.3488C98.0454 35.2543 97.7294 35.207 97.3632 35.207C97.0324 35.207 96.743 35.2484 96.495 35.3311C96.2469 35.4079 96.0372 35.5171 95.866 35.6589C95.7006 35.8006 95.5766 35.9719 95.4939 36.1727C95.4112 36.3676 95.3698 36.5832 95.3698 36.8194C95.3698 37.1207 95.4525 37.3717 95.6179 37.5725C95.7892 37.7733 96.0136 37.9446 96.2912 38.0863C96.5688 38.2281 96.8848 38.3551 97.2392 38.4673C97.5935 38.5795 97.9568 38.7006 98.3289 38.8305C98.701 38.9546 99.0642 39.1022 99.4186 39.2735C99.7729 39.4389 100.089 39.6515 100.367 39.9114C100.644 40.1653 100.866 40.4784 101.031 40.8505C101.202 41.2226 101.288 41.6744 101.288 42.2059C101.288 42.7848 101.187 43.3281 100.987 43.8361C100.792 44.3381 100.502 44.7781 100.118 45.1561C99.7405 45.5282 99.2768 45.8235 98.7275 46.0421C98.1783 46.2547 97.5492 46.361 96.8405 46.361C96.433 46.361 96.0313 46.3196 95.6356 46.237C95.2399 46.1602 94.8589 46.048 94.4928 45.9003C94.1325 45.7526 93.7929 45.5755 93.4739 45.3687C93.155 45.162 92.8715 44.9317 92.6234 44.6777L93.3233 43.5348C93.3824 43.4522 93.4592 43.3842 93.5537 43.3311C93.6482 43.272 93.7486 43.2425 93.8549 43.2425C94.0025 43.2425 94.162 43.3045 94.3333 43.4285C94.5046 43.5467 94.7083 43.6796 94.9446 43.8272C95.1808 43.9749 95.4555 44.1107 95.7685 44.2347C96.0874 44.3529 96.4684 44.4119 96.9114 44.4119C97.5906 44.4119 98.1162 44.2525 98.4883 43.9335C98.8604 43.6087 99.0465 43.145 99.0465 42.5426C99.0465 42.2059 98.9608 41.9313 98.7896 41.7187C98.6242 41.5061 98.4027 41.3289 98.1251 41.1871C97.8475 41.0395 97.5315 40.9154 97.1771 40.815C96.8228 40.7146 96.4625 40.6053 96.0963 40.4872C95.7301 40.3691 95.3698 40.2273 95.0155 40.062C94.6611 39.8966 94.3451 39.681 94.0675 39.4152C93.7899 39.1495 93.5655 38.8187 93.3942 38.423C93.2288 38.0214 93.1461 37.5282 93.1461 36.9435C93.1461 36.4769 93.2377 36.0221 93.4208 35.5791C93.6098 35.1362 93.8815 34.7434 94.2358 34.4008C94.5902 34.0583 95.0273 33.7836 95.547 33.5769C96.0668 33.3702 96.6633 33.2668 97.3366 33.2668C98.0926 33.2668 98.7896 33.385 99.4274 33.6212C100.065 33.8575 100.609 34.1882 101.058 34.6135L100.464 35.7386ZM106.645 46.2192H104.253V33.4086H106.645V46.2192ZM121.199 33.4086V46.2192H119.976C119.787 46.2192 119.627 46.1897 119.498 46.1306C119.373 46.0657 119.252 45.9594 119.134 45.8117L112.445 37.2713C112.481 37.6611 112.499 38.0214 112.499 38.3521V46.2192H110.399V33.4086H111.648C111.749 33.4086 111.834 33.4145 111.905 33.4263C111.982 33.4322 112.047 33.4499 112.1 33.4795C112.159 33.5031 112.215 33.5415 112.268 33.5946C112.321 33.6419 112.38 33.7069 112.445 33.7895L119.161 42.3654C119.143 42.1587 119.128 41.9549 119.117 41.7541C119.105 41.5533 119.099 41.3673 119.099 41.196V33.4086H121.199ZM127.329 35.3045V38.8571L131.812 38.8571V40.691L127.329 40.691V44.3145L133.017 44.3145V46.2192L124.937 46.2192V33.4086L133.017 33.4086V35.3045L127.329 35.3045ZM142.837 35.7386C142.766 35.8626 142.689 35.9542 142.606 36.0132C142.53 36.0664 142.432 36.093 142.314 36.093C142.19 36.093 142.054 36.0487 141.906 35.9601C141.765 35.8656 141.593 35.7622 141.393 35.65C141.192 35.5378 140.956 35.4374 140.684 35.3488C140.418 35.2543 140.102 35.207 139.736 35.207C139.405 35.207 139.116 35.2484 138.868 35.3311C138.62 35.4079 138.41 35.5171 138.239 35.6589C138.073 35.8006 137.949 35.9719 137.867 36.1727C137.784 36.3676 137.743 36.5832 137.743 36.8194C137.743 37.1207 137.825 37.3717 137.991 37.5725C138.162 37.7733 138.386 37.9446 138.664 38.0863C138.942 38.2281 139.258 38.3551 139.612 38.4673C139.966 38.5795 140.329 38.7006 140.702 38.8305C141.074 38.9546 141.437 39.1022 141.791 39.2735C142.146 39.4389 142.462 39.6515 142.739 39.9114C143.017 40.1653 143.238 40.4784 143.404 40.8505C143.575 41.2226 143.661 41.6744 143.661 42.2059C143.661 42.7848 143.56 43.3281 143.359 43.8361C143.164 44.3381 142.875 44.7781 142.491 45.1561C142.113 45.5282 141.65 45.8235 141.1 46.0421C140.551 46.2547 139.922 46.361 139.213 46.361C138.806 46.361 138.404 46.3196 138.008 46.237C137.613 46.1602 137.232 46.048 136.865 45.9003C136.505 45.7526 136.166 45.5755 135.847 45.3687C135.528 45.162 135.244 44.9317 134.996 44.6777L135.696 43.5348C135.755 43.4522 135.832 43.3842 135.926 43.3311C136.021 43.272 136.121 43.2425 136.228 43.2425C136.375 43.2425 136.535 43.3045 136.706 43.4285C136.877 43.5467 137.081 43.6796 137.317 43.8272C137.554 43.9749 137.828 44.1107 138.141 44.2347C138.46 44.3529 138.841 44.4119 139.284 44.4119C139.963 44.4119 140.489 44.2525 140.861 43.9335C141.233 43.6087 141.419 43.145 141.419 42.5426C141.419 42.2059 141.334 41.9313 141.162 41.7187C140.997 41.5061 140.775 41.3289 140.498 41.1871C140.22 41.0395 139.904 40.9154 139.55 40.815C139.195 40.7146 138.835 40.6053 138.469 40.4872C138.103 40.3691 137.743 40.2273 137.388 40.062C137.034 39.8966 136.718 39.681 136.44 39.4152C136.163 39.1495 135.938 38.8187 135.767 38.423C135.602 38.0214 135.519 37.5282 135.519 36.9435C135.519 36.4769 135.61 36.0221 135.793 35.5791C135.982 35.1362 136.254 34.7434 136.609 34.4008C136.963 34.0583 137.4 33.7836 137.92 33.5769C138.439 33.3702 139.036 33.2668 139.709 33.2668C140.465 33.2668 141.162 33.385 141.8 33.6212C142.438 33.8575 142.981 34.1882 143.43 34.6135L142.837 35.7386ZM153.447 35.7386C153.376 35.8626 153.3 35.9542 153.217 36.0132C153.14 36.0664 153.043 36.093 152.924 36.093C152.8 36.093 152.665 36.0487 152.517 35.9601C152.375 35.8656 152.204 35.7622 152.003 35.65C151.802 35.5378 151.566 35.4374 151.294 35.3488C151.029 35.2543 150.713 35.207 150.346 35.207C150.016 35.207 149.726 35.2484 149.478 35.3311C149.23 35.4079 149.02 35.5171 148.849 35.6589C148.684 35.8006 148.56 35.9719 148.477 36.1727C148.394 36.3676 148.353 36.5832 148.353 36.8194C148.353 37.1207 148.436 37.3717 148.601 37.5725C148.772 37.7733 148.997 37.9446 149.274 38.0863C149.552 38.2281 149.868 38.3551 150.222 38.4673C150.577 38.5795 150.94 38.7006 151.312 38.8305C151.684 38.9546 152.047 39.1022 152.402 39.2735C152.756 39.4389 153.072 39.6515 153.35 39.9114C153.627 40.1653 153.849 40.4784 154.014 40.8505C154.185 41.2226 154.271 41.6744 154.271 42.2059C154.271 42.7848 154.171 43.3281 153.97 43.8361C153.775 44.3381 153.486 44.7781 153.102 45.1561C152.724 45.5282 152.26 45.8235 151.711 46.0421C151.161 46.2547 150.532 46.361 149.824 46.361C149.416 46.361 149.015 46.3196 148.619 46.237C148.223 46.1602 147.842 46.048 147.476 45.9003C147.116 45.7526 146.776 45.5755 146.457 45.3687C146.138 45.162 145.855 44.9317 145.607 44.6777L146.307 43.5348C146.366 43.4522 146.442 43.3842 146.537 43.3311C146.631 43.272 146.732 43.2425 146.838 43.2425C146.986 43.2425 147.145 43.3045 147.316 43.4285C147.488 43.5467 147.692 43.6796 147.928 43.8272C148.164 43.9749 148.439 44.1107 148.752 44.2347C149.071 44.3529 149.452 44.4119 149.895 44.4119C150.574 44.4119 151.099 44.2525 151.472 43.9335C151.844 43.6087 152.03 43.145 152.03 42.5426C152.03 42.2059 151.944 41.9313 151.773 41.7187C151.607 41.5061 151.386 41.3289 151.108 41.1871C150.831 41.0395 150.515 40.9154 150.16 40.815C149.806 40.7146 149.446 40.6053 149.08 40.4872C148.713 40.3691 148.353 40.2273 147.999 40.062C147.644 39.8966 147.328 39.681 147.051 39.4152C146.773 39.1495 146.549 38.8187 146.377 38.423C146.212 38.0214 146.129 37.5282 146.129 36.9435C146.129 36.4769 146.221 36.0221 146.404 35.5791C146.593 35.1362 146.865 34.7434 147.219 34.4008C147.573 34.0583 148.01 33.7836 148.53 33.5769C149.05 33.3702 149.647 33.2668 150.32 33.2668C151.076 33.2668 151.773 33.385 152.411 33.6212C153.049 33.8575 153.592 34.1882 154.041 34.6135L153.447 35.7386ZM69.4492 50.3045V53.8571H73.9321V55.691H69.4492V59.3145H75.137V61.2192H67.0572V48.4086H75.137V50.3045H69.4492ZM89.5103 54.8139C89.5103 55.753 89.3538 56.6153 89.0408 57.4008C88.7278 58.1864 88.2877 58.8626 87.7207 59.4296C87.1537 59.9966 86.4716 60.4367 85.6742 60.7497C84.8769 61.0627 83.9909 61.2192 83.0164 61.2192H78.1349V48.4086H83.0164C83.9909 48.4086 84.8769 48.5681 85.6742 48.887C86.4716 49.2 87.1537 49.64 87.7207 50.207C88.2877 50.7681 88.7278 51.4414 89.0408 52.227C89.3538 53.0125 89.5103 53.8748 89.5103 54.8139ZM87.0651 54.8139C87.0651 54.1111 86.9706 53.4821 86.7816 52.9269C86.5985 52.3658 86.3298 51.8933 85.9754 51.5094C85.627 51.1196 85.2017 50.8213 84.6997 50.6146C84.2036 50.4079 83.6425 50.3045 83.0164 50.3045H80.5269V59.3233H83.0164C83.6425 59.3233 84.2036 59.22 84.6997 59.0133C85.2017 58.8065 85.627 58.5112 85.9754 58.1273C86.3298 57.7375 86.5985 57.265 86.7816 56.7098C86.9706 56.1487 87.0651 55.5168 87.0651 54.8139ZM97.6564 59.2968C98.1171 59.2968 98.5276 59.22 98.8878 59.0664C99.254 58.9128 99.5611 58.6973 99.8092 58.4197C100.057 58.1421 100.246 57.8054 100.376 57.4097C100.512 57.014 100.58 56.571 100.58 56.0808V48.4086H102.963V56.0808C102.963 56.8427 102.839 57.5485 102.591 58.1982C102.349 58.842 101.997 59.4001 101.537 59.8726C101.082 60.3392 100.527 60.7054 99.8712 60.9712C99.2156 61.2311 98.4774 61.361 97.6564 61.361C96.8295 61.361 96.0883 61.2311 95.4327 60.9712C94.7771 60.7054 94.2189 60.3392 93.7583 59.8726C93.3035 59.4001 92.9521 58.842 92.704 58.1982C92.4618 57.5485 92.3408 56.8427 92.3408 56.0808V48.4086L94.7239 48.4086V56.0719C94.7239 56.5622 94.7889 57.0051 94.9188 57.4008C95.0547 57.7966 95.2466 58.1362 95.4947 58.4197C95.7487 58.6973 96.0558 58.9128 96.4161 59.0664C96.7823 59.22 97.1957 59.2968 97.6564 59.2968ZM115.334 58.1982C115.464 58.1982 115.579 58.2484 115.68 58.3488L116.619 59.3676C116.099 60.0114 115.458 60.5046 114.696 60.8471C113.94 61.1897 113.031 61.361 111.968 61.361C111.017 61.361 110.16 61.1986 109.398 60.8737C108.642 60.5489 107.996 60.0971 107.458 59.5182C106.921 58.9394 106.507 58.2484 106.218 57.4451C105.934 56.6419 105.793 55.7648 105.793 54.8139C105.793 53.8512 105.946 52.9712 106.253 52.1738C106.56 51.3706 106.992 50.6795 107.547 50.1007C108.108 49.5219 108.775 49.073 109.549 48.7541C110.323 48.4293 111.179 48.2668 112.118 48.2668C113.051 48.2668 113.878 48.4204 114.599 48.7275C115.325 49.0346 115.942 49.4363 116.45 49.9324L115.653 51.0398C115.606 51.1107 115.544 51.1727 115.467 51.2259C115.396 51.279 115.296 51.3056 115.166 51.3056C115.077 51.3056 114.986 51.282 114.891 51.2347C114.797 51.1816 114.693 51.1196 114.581 51.0487C114.469 50.9719 114.339 50.8892 114.191 50.8006C114.044 50.712 113.872 50.6323 113.677 50.5614C113.483 50.4846 113.255 50.4226 112.995 50.3754C112.741 50.3222 112.446 50.2956 112.109 50.2956C111.536 50.2956 111.011 50.399 110.532 50.6057C110.06 50.8065 109.652 51.1018 109.31 51.4916C108.967 51.8756 108.701 52.3481 108.512 52.9091C108.323 53.4643 108.229 54.0993 108.229 54.8139C108.229 55.5345 108.329 56.1753 108.53 56.7364C108.737 57.2975 109.014 57.77 109.363 58.1539C109.711 58.5378 110.122 58.8331 110.594 59.0398C111.067 59.2406 111.575 59.3411 112.118 59.3411C112.443 59.3411 112.735 59.3233 112.995 59.2879C113.261 59.2525 113.503 59.1963 113.722 59.1196C113.946 59.0428 114.156 58.9453 114.351 58.8272C114.552 58.7032 114.749 58.5526 114.944 58.3754C115.003 58.3222 115.065 58.2809 115.13 58.2513C115.195 58.2159 115.263 58.1982 115.334 58.1982ZM125.906 56.382L124.346 52.1207C124.27 51.9317 124.19 51.7072 124.107 51.4474C124.025 51.1875 123.942 50.9069 123.859 50.6057C123.782 50.9069 123.703 51.1904 123.62 51.4562C123.537 51.7161 123.458 51.9435 123.381 52.1384L121.83 56.382H125.906ZM130.114 61.2192H128.271C128.064 61.2192 127.896 61.169 127.766 61.0686C127.636 60.9623 127.539 60.8324 127.474 60.6788L126.517 58.0653H121.21L120.253 60.6788C120.206 60.8147 120.115 60.9387 119.979 61.0509C119.843 61.1631 119.675 61.2192 119.474 61.2192H117.613L122.654 48.4086H125.082L130.114 61.2192ZM140.028 50.3665H136.165V61.2192H133.782V50.3665H129.919V48.4086H140.028V50.3665ZM144.982 50.3045V53.8571H149.465V55.691H144.982V59.3145H150.67V61.2192H142.59V48.4086H150.67V50.3045H144.982ZM165.043 54.8139C165.043 55.753 164.887 56.6153 164.574 57.4008C164.261 58.1864 163.821 58.8626 163.254 59.4296C162.687 59.9966 162.005 60.4367 161.207 60.7497C160.41 61.0627 159.524 61.2192 158.549 61.2192H153.668V48.4086H158.549C159.524 48.4086 160.41 48.5681 161.207 48.887C162.005 49.2 162.687 49.64 163.254 50.207C163.821 50.7681 164.261 51.4414 164.574 52.227C164.887 53.0125 165.043 53.8748 165.043 54.8139ZM162.598 54.8139C162.598 54.1111 162.504 53.4821 162.315 52.9269C162.132 52.3658 161.863 51.8933 161.509 51.5094C161.16 51.1196 160.735 50.8213 160.233 50.6146C159.737 50.4079 159.176 50.3045 158.549 50.3045H156.06V59.3233H158.549C159.176 59.3233 159.737 59.22 160.233 59.0133C160.735 58.8065 161.16 58.5112 161.509 58.1273C161.863 57.7375 162.132 57.265 162.315 56.7098C162.504 56.1487 162.598 55.5168 162.598 54.8139Z" fill="#FF0F0F"/>
<defs>
<filter id="filter0_i_221_4239" x="0.347656" y="20.2144" width="65.2832" height="54.0098" filterUnits="userSpaceOnUse" color-interpolation-filters="sRGB">
<feFlood flood-opacity="0" result="BackgroundImageFix"/>
<feBlend mode="normal" in="SourceGraphic" in2="BackgroundImageFix" result="shape"/>
<feColorMatrix in="SourceAlpha" type="matrix" values="0 0 0 0 0 0 0 0 0 0 0 0 0 0 0 0 0 0 127 0" result="hardAlpha"/>
<feOffset dx="-2.95312" dy="-2.95312"/>
<feComposite in2="hardAlpha" operator="arithmetic" k2="-1" k3="1"/>
<feColorMatrix type="matrix" values="0 0 0 0 1 0 0 0 0 0.0588235 0 0 0 0 0.0588235 0 0 0 0.3 0"/>
<feBlend mode="normal" in2="shape" result="effect1_innerShadow_221_4239"/>
</filter>
<clipPath id="clip0_221_4239">
<rect x="0.347656" y="49.7456" width="59.0625" height="28.2656" rx="14.1328" transform="rotate(-30 0.347656 49.7456)" fill="white"/>
</clipPath>
</defs>
</svg>
